<svg xmlns="http://www.w3.org/2000/svg" viewBox="62.048 124.944 847.952 585.056"><defs><linearGradient id="coding_svg__a" x1="505.007" y1="194.725" x2="505.007" y2="719.205" gradientUnits="userSpaceOnUse"><stop offset="0" stop-color="#fff"/><stop offset=".093" stop-color="#fff" stop-opacity=".864"/><stop offset=".284" stop-color="#fff" stop-opacity=".605"/><stop offset=".466" stop-color="#fff" stop-opacity=".389"/><stop offset=".633" stop-color="#fff" stop-opacity=".221"/><stop offset=".784" stop-color="#fff" stop-opacity=".1"/><stop offset=".911" stop-color="#fff" stop-opacity=".026"/><stop offset="1" stop-color="#fff" stop-opacity="0"/></linearGradient></defs><g style="isolation:isolate"><path style="mix-blend-mode:overlay" opacity=".43" fill="url(#coding_svg__a)" d="M813.971 701.562H196.043l230.971-499.886H583l230.971 499.886z"/><path fill="none" stroke="#283035" stroke-linecap="round" stroke-linejoin="round" stroke-width="8" d="M182.562 561.774l7.832-37.326 41.168-9.333"/><path d="M310.7 435.853h337.778a17.113 17.113 0 0117.113 17.113v222.887h-372V452.965a17.113 17.113 0 0117.109-17.112z" fill="#d2dce6"/><path d="M310.7 435.853h337.778a17.113 17.113 0 0117.113 17.113v222.887h0-372 0V452.965a17.113 17.113 0 0117.109-17.112z" fill="none" stroke="#283035" stroke-linecap="round" stroke-linejoin="round" stroke-width="6"/><path fill="#ff5c5c" d="M637.591 464.136v184h-316v-184z"/><path fill="#fff" stroke="#fff" stroke-linecap="round" stroke-linejoin="round" stroke-width="6" opacity=".3" d="M505.007 618.781h52"/><path d="M631.78 561.585a4.464 4.464 0 014.547 3.143v-11.455a12.25 12.25 0 00-3.38-.492h-1.167q-3.774 0-3.773 3.773v1.346c0 2.427 1.257 3.685 3.773 3.685zm4.547 54.909a4.472 4.472 0 01-4.547 3.12q-3.774 0-3.773 3.772v1.348q0 3.772 3.773 3.773h1.167a12.25 12.25 0 003.38-.492z" opacity=".3" fill="#fff"/><path fill="none" stroke="#283035" stroke-linecap="round" stroke-linejoin="round" stroke-width="6" d="M637.591 464.136v184h-316v-184z"/><path d="M252.543 676h454.1a4 4 0 014 4v4.791a20 20 0 01-20 20h-422.1a20 20 0 01-20-20V680a4 4 0 014-4z" fill="#e5e5e5"/><path d="M690.639 695.787h-422.1a19.986 19.986 0 01-19.761-17.087 3.957 3.957 0 00-.235 1.3v4.791a20 20 0 0020 20h422.1a20 20 0 0020-20V680a3.957 3.957 0 00-.235-1.3 19.986 19.986 0 01-19.769 17.087z" fill="#cfd1d0"/><path d="M252.543 676h454.1a4 4 0 014 4v4.791a20 20 0 01-20 20h-422.1a20 20 0 01-20-20V680a4 4 0 014-4z" fill="none" stroke="#283035" stroke-linecap="round" stroke-linejoin="round" stroke-width="6"/><path d="M437.591 675.853h84a8 8 0 01-8 8h-68a8 8 0 01-8-8z" fill="#686b6d"/><path d="M437.591 675.853h84v0a8 8 0 01-8 8h-68a8 8 0 01-8-8v0h0z" fill="none" stroke="#283035" stroke-linecap="round" stroke-linejoin="round" stroke-width="4"/><circle cx="478.804" cy="449.619" r="8" fill="#686b6d"/><circle cx="478.804" cy="449.619" r="8" fill="none" stroke="#283035" stroke-linecap="round" stroke-linejoin="round" stroke-width="4"/><path d="M153.455 704.787h49.1a7 7 0 006.944-6.115l13.115-102.9H133.4l13.116 102.9a7 7 0 006.939 6.115z" fill="#ead57d"/><path d="M147.048 595.774l10.406 95.034a7.983 7.983 0 007.935 7.114H209.6l-.095.75a7 7 0 01-6.944 6.115h-49.1a7 7 0 01-6.943-6.115L133.4 595.774z" fill="#e5c66e"/><path d="M153.455 704.787h49.1a7 7 0 006.944-6.115l13.115-102.9H133.4l13.116 102.9a7 7 0 006.939 6.115z" fill="none" stroke="#283035" stroke-linecap="round" stroke-linejoin="round" stroke-width="6"/><path fill="#5cbf84" d="M219.25 675.164l6.343-49.767H130.42l6.343 49.767h82.487z"/><path fill="#4fb277" d="M219.25 675.164l6.343-49.767H130.42l6.343 49.767h82.487z"/><path d="M218.856 669.414l5.319-44.017h-79.808l4.9 40.524a3.97 3.97 0 003.941 3.493z" fill="#5cbf84"/><path fill="none" stroke="#283035" stroke-linecap="round" stroke-linejoin="round" stroke-width="6" d="M219.25 675.164l6.343-49.767H130.42l6.343 49.767h82.487z"/><rect x="116.667" y="573.774" width="122.678" height="22" rx="11" transform="rotate(180 178.006 584.774)" fill="#5cbf84"/><rect x="116.667" y="573.774" width="122.678" height="22" rx="11" transform="rotate(180 178.006 584.774)" fill="#4fb277"/><rect x="130.42" y="573.774" width="108.926" height="17.25" rx="8.625" transform="rotate(-180 184.883 582.399)" fill="#5cbf84"/><rect x="116.667" y="573.774" width="122.678" height="22" rx="11" transform="rotate(180 178.006 584.774)" fill="none" stroke="#283035" stroke-linecap="round" stroke-linejoin="round" stroke-width="6"/><path fill="#5cbf84" d="M138.006 573.774h80l-1.583-12H139.59l-1.584 12z"/><path fill="#54af79" d="M139.59 561.774h23.472l-5.556 12h-19.5l1.584-12z"/><path fill="none" stroke="#283035" stroke-linecap="round" stroke-linejoin="round" stroke-width="6" d="M138.006 573.774h80l-1.583-12H139.59l-1.584 12z"/><path d="M721.134 704.886a28.99 28.99 0 0157.979 0z" fill="#e5e5e5"/><path d="M750.124 695.729a29.046 29.046 0 0021.976-9.736 28.967 28.967 0 00-43.953 0 29.047 29.047 0 0021.977 9.736z" fill="#cfd1d0"/><path d="M721.134 704.886a28.99 28.99 0 0157.979 0z" fill="none" stroke="#283035" stroke-linecap="round" stroke-linejoin="round" stroke-width="6"/><rect x="367.007" y="499.781" width="168" height="134" rx="8.008" style="mix-blend-mode:multiply" opacity=".14"/><rect x="359.174" y="492.781" width="168" height="134" rx="8.008" fill="#353f49"/><rect x="359.174" y="492.781" width="168" height="134" rx="8.008" fill="none" stroke="#283035" stroke-linecap="round" stroke-linejoin="round" stroke-width="4"/><path d="M367.181 492.781h151.985a8.008 8.008 0 018.008 8.008v11.992h-168v-11.992a8.008 8.008 0 018.007-8.008z" fill="#eaeeef"/><path d="M367.181 492.781h151.985a8.008 8.008 0 018.008 8.008v11.992h0-168 0v-11.992a8.008 8.008 0 018.007-8.008z" fill="none" stroke="#283035" stroke-linecap="round" stroke-linejoin="round" stroke-width="4"/><circle cx="373.507" cy="502.781" r="3.125" fill="#283035" opacity=".35"/><circle cx="383.34" cy="502.781" r="3.125" fill="#283035" opacity=".35"/><circle cx="392.674" cy="502.781" r="3.125" fill="#283035" opacity=".35"/><path fill="none" stroke="#46bb86" stroke-miterlimit="10" stroke-width="3" d="M367.007 519.781h11m4 0h30"/><path fill="none" stroke="#389abe" stroke-miterlimit="10" stroke-width="3" d="M367.007 527.781h45"/><path fill="none" stroke="#e5c689" stroke-miterlimit="10" stroke-width="3" d="M376.007 535.781h22"/><path fill="none" stroke="#f2f3f4" stroke-miterlimit="10" stroke-width="3" d="M402.007 535.781h24m-38 8h46"/><path fill="none" stroke="#ffa49f" stroke-miterlimit="10" stroke-width="3" d="M388.007 551.781h34"/><path fill="none" stroke="#f2f3f4" stroke-miterlimit="10" stroke-width="3" d="M376.007 559.781h50"/><path fill="none" stroke="#389abe" stroke-miterlimit="10" stroke-width="3" d="M367.007 566.781h27"/><path d="M599.643 605.522c0-3.952-1.528-6.736-4.582-8.443-2.156-1.168-3.054-2.067-3.054-4.132v-3.5c0-2.425 1.078-2.964 2.964-4.222 3.144-1.347 4.672-4.221 4.672-8.533v-7.636c0-6.108 2.245-10.6 5.479-12.486a15.02 15.02 0 018.264-2.785h1.168q3.772 0 3.773 3.773v1.342c0 2.425-1.258 3.683-3.773 3.683-3.5 0-5.21 2.515-5.21 7.635v9.432a11.959 11.959 0 01-6.557 11.139l-.809.269v.18a7.017 7.017 0 012.515 1.348c2.246 1.346 4.851 4.491 4.851 9.97v10.51c0 5.03 1.707 7.546 5.21 7.546q3.772 0 3.773 3.772v1.348q0 3.772-3.773 3.773h-1.168a15.02 15.02 0 01-8.264-2.785c-3.234-1.886-5.479-6.467-5.479-12.486z" fill="#fff" opacity=".3"/><path d="M148.923 653.683l2-1.946a42.611 42.611 0 0053.664 0l2.5 2.444M171.624 643.6a4.281 4.281 0 00-4.281-4.281h0a4.281 4.281 0 00-4.281 4.281v3.921m21.326-3.921a4.281 4.281 0 014.281-4.281h0a4.281 4.281 0 014.281 4.281v3.921" fill="none" stroke="#283035" stroke-linecap="round" stroke-linejoin="round" stroke-width="3"/><rect x="793.741" y="574.886" width="96" height="130" rx="9.1" fill="#e5e5e5"/><path d="M880.641 574.886h-1.153a9.091 9.091 0 01.253 2.1v111.8a9.1 9.1 0 01-9.1 9.1H794a9.1 9.1 0 008.847 7h77.8a9.1 9.1 0 009.1-9.1v-111.8a9.1 9.1 0 00-9.106-9.1z" fill="#cfd1d0"/><rect x="793.741" y="574.886" width="96" height="130" rx="9.1" fill="none" stroke="#283035" stroke-linecap="round" stroke-linejoin="round" stroke-width="6"/><path d="M857.741 567.342h-8v-3a8 8 0 00-16 0v3h-8a8 8 0 000 16h32a8 8 0 000-16z" fill="#f7b66f"/><path d="M861.458 568.262a7.974 7.974 0 01-7.717 10.08h-32a7.958 7.958 0 01-3.717-.919 8 8 0 007.717 5.919h32a8 8 0 003.717-15.08zm-15.717-8.92v3h3.738a8 8 0 00-4.021-5.08 7.971 7.971 0 01.283 2.08z" fill="#eda762"/><path d="M857.741 567.342h-8v-3a8 8 0 00-16 0v3h-8a8 8 0 000 16h32a8 8 0 000-16z" fill="none" stroke="#283035" stroke-linecap="round" stroke-linejoin="round" stroke-width="6"/><circle cx="841.741" cy="604.009" r="8.333" fill="#8eafbf"/><circle cx="841.741" cy="604.009" r="8.333" fill="none" stroke="#283035" stroke-linecap="round" stroke-linejoin="round" stroke-width="6"/><path fill="none" stroke="#283035" stroke-linecap="round" stroke-linejoin="round" stroke-width="6" d="M809.964 629.676h20m-20 27.166h20m-20 27.167h20"/><path fill="none" stroke="#8bafc1" stroke-linecap="round" stroke-linejoin="round" stroke-width="4" d="M843.178 628.606l5.214 6.935 15.604-11.73m-20.818 31.961l5.214 6.936 15.604-11.731"/><path fill="#3bbc88" d="M889.74 631.91l9.904-1.378 8.821 63.39-9.904 1.377z"/><path fill="none" stroke="#283035" stroke-linecap="round" stroke-linejoin="round" stroke-width="4" d="M889.74 631.91l9.904-1.378 8.821 63.39-9.904 1.377z"/><path fill="#e5e5e5" d="M908.467 693.92l-9.905 1.378 6.331 9.215 3.574-10.593z"/><path fill="none" stroke="#283035" stroke-linecap="round" stroke-linejoin="round" stroke-width="4" d="M908.467 693.92l-9.905 1.378 6.331 9.215 3.574-10.593z"/><path fill="#e5e5e5" d="M890.046 621.29l5.94-.827 1.38 9.9-5.94.828z"/><path fill="none" stroke="#283035" stroke-linecap="round" stroke-linejoin="round" stroke-width="3.998" d="M890.046 621.29l5.94-.827 1.38 9.9-5.94.828z"/><path d="M908.6 655.545a18.786 18.786 0 01-2.347-5.984c-1.105-5.433 1.623-8.539.148-11.631-.588-1.233-.873-2.917-5.29-3.555" fill="none" stroke="#283035" stroke-linecap="round" stroke-linejoin="round" stroke-width="4"/><path fill="none" stroke="#283035" stroke-linecap="round" stroke-linejoin="round" stroke-width="6" d="M920.75 704.886h25.75m-712.167 0H909.5m-794.75 0h107.866m-142.283 0H103.5"/><circle cx="505.007" cy="203.582" r="24" fill="#fff"/><path d="M436.111 209a8.632 8.632 0 01-8.538-9.692C432.238 159.7 465.127 129 505.007 129s72.769 30.7 77.433 70.308A8.631 8.631 0 01573.9 209z" fill="#f7b66f"/><path d="M517.007 129.944c-.258-.041-.519-.07-.778-.108a77.184 77.184 0 00-2.742-.357c-.418-.047-.837-.085-1.257-.125a62.613 62.613 0 00-2.289-.181c-.444-.026-.885-.059-1.33-.08-1.195-.056-2.4-.093-3.6-.093s-2.4.036-3.588.093c-.549.026-1.094.069-1.64.106a72.425 72.425 0 00-4.961.503c-36.024 4.823-64.327 34.836-67.512 72.249a6.478 6.478 0 006.44 7.049h142.518a6.449 6.449 0 006.449-6.944c-3.088-36.836-30.517-66.538-65.71-72.112zm-62.976 56.985a79.3 79.3 0 0150.24-53.8 79.285 79.285 0 0150.294 53.8 10.762 10.762 0 01-10.424 13.571h-79.685a10.761 10.761 0 01-10.425-13.571z" fill="#efaa65"/><path d="M436.178 209a8.69 8.69 0 01-8.6-9.759C432.275 159.661 465.15 129 505.007 129s72.732 30.661 77.425 70.241a8.689 8.689 0 01-8.6 9.759z" fill="none" stroke="#283035" stroke-linecap="round" stroke-linejoin="round" stroke-width="6"/><path fill="none" stroke="#283035" stroke-linejoin="round" stroke-width="6" d="M505.007 0v129"/></g></svg>