<svg xmlns="http://www.w3.org/2000/svg" viewBox="70 120 370 380.399"><g style="mix-blend-mode:multiply" opacity=".33" fill="#4e4e4e"><rect x="177.95" y="261.845" width="260" height="45.478" rx="14" stroke="#000" stroke-linecap="round" stroke-linejoin="round"/><rect x="177.95" y="261.845" width="260" height="45.478" rx="14"/><path d="M191.95 261.845h232a14 14 0 0114 14v20.438a8.549 8.549 0 01-8.549 8.549H186.5a8.549 8.549 0 01-8.549-8.549v-20.438a14 14 0 0114-14z" style="mix-blend-mode:multiply" opacity=".17"/><rect x="177.95" y="261.845" width="260" height="45.478" rx="14" stroke="#46505c" stroke-linecap="round" stroke-linejoin="round" stroke-width="4"/><path d="M419.95 266.969v34.941h-224v-34.941z"/><path stroke="#46505c" stroke-linecap="round" stroke-linejoin="round" d="M419.95 266.969v34.941h-224v-34.941z"/><rect x="177.951" y="307.323" width="260" height="172" rx="14"/><rect x="225.95" y="267.323" width="164" height="252" rx="10" transform="rotate(90 307.95 393.324)" stroke="#e6f3ff" stroke-miterlimit="10" stroke-width="2"/><path d="M291.9 471.5H324a4 4 0 014 4v3.82h-40.1v-3.82a4 4 0 014-4z"/><rect x="177.951" y="307.323" width="260" height="172" rx="14" stroke="#46505c" stroke-linecap="round" stroke-linejoin="round" stroke-width="4"/><rect x="192.95" y="320.743" width="230" height="92" rx="3"/><rect x="224.035" y="390.243" width="14" height="14" rx="1" stroke="#626c84" stroke-linecap="round" stroke-linejoin="round"/><rect x="202.396" y="390.243" width="14" height="14" rx="1" stroke="#626c84" stroke-linecap="round" stroke-linejoin="round"/><rect x="245.673" y="390.243" width="100.554" height="14" rx="1" stroke="#626c84" stroke-linecap="round" stroke-linejoin="round"/><rect x="353.866" y="390.243" width="14" height="14" rx="1" stroke="#626c84" stroke-linecap="round" stroke-linejoin="round"/><rect x="389.505" y="398.118" width="10" height="6.125" rx="1" stroke="#626c84" stroke-linecap="round" stroke-linejoin="round"/><rect x="389.505" y="390.243" width="10" height="6.125" rx="1" stroke="#626c84" stroke-linecap="round" stroke-linejoin="round"/><rect x="403.505" y="398.118" width="10" height="6.125" rx="1" stroke="#626c84" stroke-linecap="round" stroke-linejoin="round"/><rect x="375.505" y="398.118" width="10" height="6.125" rx="1" stroke="#626c84" stroke-linecap="round" stroke-linejoin="round"/><rect x="202.396" y="370.323" width="33.639" height="14" rx="1" stroke="#626c84" stroke-linecap="round" stroke-linejoin="round"/><rect x="243.854" y="370.323" width="14" height="14" rx="1" stroke="#626c84" stroke-linecap="round" stroke-linejoin="round"/><rect x="265.493" y="370.323" width="14" height="14" rx="1" stroke="#626c84" stroke-linecap="round" stroke-linejoin="round"/><rect x="287.131" y="370.323" width="14" height="14" rx="1" stroke="#626c84" stroke-linecap="round" stroke-linejoin="round"/><rect x="308.77" y="370.323" width="14" height="14" rx="1" stroke="#626c84" stroke-linecap="round" stroke-linejoin="round"/><rect x="330.408" y="370.323" width="14" height="14" rx="1" stroke="#626c84" stroke-linecap="round" stroke-linejoin="round"/><rect x="352.047" y="370.323" width="14" height="14" rx="1" stroke="#626c84" stroke-linecap="round" stroke-linejoin="round"/><rect x="375.505" y="370.323" width="38" height="14" rx="1" stroke="#626c84" stroke-linecap="round" stroke-linejoin="round"/><rect x="236.035" y="349.843" width="14" height="14" rx="1" stroke="#626c84" stroke-linecap="round" stroke-linejoin="round"/><rect x="202.396" y="349.843" width="26" height="14" rx="1" stroke="#626c84" stroke-linecap="round" stroke-linejoin="round"/><rect x="257.673" y="349.843" width="14" height="14" rx="1" stroke="#626c84" stroke-linecap="round" stroke-linejoin="round"/><rect x="279.312" y="349.843" width="14" height="14" rx="1" stroke="#626c84" stroke-linecap="round" stroke-linejoin="round"/><rect x="300.95" y="349.843" width="14" height="14" rx="1" stroke="#626c84" stroke-linecap="round" stroke-linejoin="round"/><rect x="322.589" y="349.843" width="14" height="14" rx="1" stroke="#626c84" stroke-linecap="round" stroke-linejoin="round"/><rect x="344.228" y="349.843" width="14" height="14" rx="1" stroke="#626c84" stroke-linecap="round" stroke-linejoin="round"/><rect x="365.866" y="349.843" width="14" height="14" rx="1" stroke="#626c84" stroke-linecap="round" stroke-linejoin="round"/><rect x="387.505" y="349.843" width="26" height="14" rx="1" stroke="#626c84" stroke-linecap="round" stroke-linejoin="round"/><rect x="224.297" y="330.243" width="14" height="14" rx="1" stroke="#626c84" stroke-linecap="round" stroke-linejoin="round"/><rect x="202.396" y="330.243" width="14" height="14" rx="1" stroke="#626c84" stroke-linecap="round" stroke-linejoin="round"/><rect x="246.198" y="330.243" width="14" height="14" rx="1" stroke="#626c84" stroke-linecap="round" stroke-linejoin="round"/><rect x="268.099" y="330.243" width="14" height="14" rx="1" stroke="#626c84" stroke-linecap="round" stroke-linejoin="round"/><rect x="290" y="330.243" width="14" height="14" rx="1" stroke="#626c84" stroke-linecap="round" stroke-linejoin="round"/><rect x="311.901" y="330.243" width="14" height="14" rx="1" stroke="#626c84" stroke-linecap="round" stroke-linejoin="round"/><rect x="333.802" y="330.243" width="14" height="14" rx="1" stroke="#626c84" stroke-linecap="round" stroke-linejoin="round"/><rect x="355.703" y="330.243" width="14" height="14" rx="1" stroke="#626c84" stroke-linecap="round" stroke-linejoin="round"/><rect x="377.604" y="330.243" width="14" height="14" rx="1" stroke="#626c84" stroke-linecap="round" stroke-linejoin="round"/><rect x="399.505" y="330.243" width="14" height="14" rx="1" stroke="#626c84" stroke-linecap="round" stroke-linejoin="round"/><rect x="224.035" y="390.243" width="14" height="14" rx="1"/><rect x="202.396" y="390.243" width="14" height="14" rx="1"/><rect x="245.673" y="390.243" width="100.554" height="14" rx="1"/><rect x="353.866" y="390.243" width="14" height="14" rx="1"/><rect x="389.505" y="398.118" width="10" height="6.125" rx="1"/><rect x="389.505" y="390.243" width="10" height="6.125" rx="1"/><rect x="403.505" y="398.118" width="10" height="6.125" rx="1"/><rect x="375.505" y="398.118" width="10" height="6.125" rx="1"/><rect x="202.396" y="370.323" width="33.639" height="14" rx="1"/><rect x="243.854" y="370.323" width="14" height="14" rx="1"/><rect x="265.493" y="370.323" width="14" height="14" rx="1"/><rect x="287.131" y="370.323" width="14" height="14" rx="1"/><rect x="308.77" y="370.323" width="14" height="14" rx="1"/><rect x="330.408" y="370.323" width="14" height="14" rx="1"/><rect x="352.047" y="370.323" width="14" height="14" rx="1"/><rect x="375.505" y="370.323" width="38" height="14" rx="1"/><rect x="236.035" y="349.843" width="14" height="14" rx="1"/><rect x="202.396" y="349.843" width="26" height="14" rx="1"/><rect x="257.673" y="349.843" width="14" height="14" rx="1"/><rect x="279.312" y="349.843" width="14" height="14" rx="1"/><rect x="300.95" y="349.843" width="14" height="14" rx="1"/><rect x="322.589" y="349.843" width="14" height="14" rx="1"/><rect x="344.228" y="349.843" width="14" height="14" rx="1"/><rect x="365.866" y="349.843" width="14" height="14" rx="1"/><rect x="387.505" y="349.843" width="26" height="14" rx="1"/><rect x="224.297" y="330.243" width="14" height="14" rx="1"/><rect x="202.396" y="330.243" width="14" height="14" rx="1"/><rect x="246.198" y="330.243" width="14" height="14" rx="1"/><rect x="268.099" y="330.243" width="14" height="14" rx="1"/><rect x="290" y="330.243" width="14" height="14" rx="1"/><rect x="311.901" y="330.243" width="14" height="14" rx="1"/><rect x="333.802" y="330.243" width="14" height="14" rx="1"/><rect x="355.703" y="330.243" width="14" height="14" rx="1"/><rect x="377.604" y="330.243" width="14" height="14" rx="1"/><rect x="399.505" y="330.243" width="14" height="14" rx="1"/><path d="M222.95 298.339h170v13.446a4 4 0 01-4 4h-162a4 4 0 01-4-4v-13.446z"/><path d="M388.95 311.784h-162a4 4 0 01-4-4v4a4 4 0 004 4h162a4 4 0 004-4v-4a4 4 0 01-4 4z" style="mix-blend-mode:multiply" opacity=".25"/><path d="M222.95 298.339h170v13.446a4 4 0 01-4 4h-162a4 4 0 01-4-4v-13.446h0z" stroke="#46505c" stroke-linecap="round" stroke-linejoin="round" stroke-width="2"/><rect x="270.951" y="417.743" width="74" height="51" rx="2"/><rect x="270.951" y="417.743" width="74" height="51" rx="2" stroke="#626c84" stroke-linecap="round" stroke-linejoin="round"/></g><g style="mix-blend-mode:multiply" opacity=".33" fill="#4e4e4e" stroke="#46505c" stroke-linecap="round" stroke-linejoin="round" stroke-width="4"><path d="M87.455 407.313l7.716-11.029a.692.692 0 01.964-.17l7.875 5.51a.692.692 0 01.17.963l-7.716 11.03a4.998 4.998 0 01-6.96 1.23l-.819-.574a4.998 4.998 0 01-1.23-6.96z" stroke-width="3.998"/><path d="M87.455 407.313l7.716-11.029a.692.692 0 01.964-.17l7.875 5.51a.692.692 0 01.17.963l-7.716 11.03a4.998 4.998 0 01-6.96 1.23l-.819-.574a4.998 4.998 0 01-1.23-6.96z" stroke-width="3.998"/><circle cx="117.084" cy="374.922" r="32.576"/><circle cx="117.084" cy="374.922" r="32.576"/><circle cx="117.084" cy="374.922" r="25.355"/><circle cx="117.084" cy="374.922" r="25.355"/><path d="M100.509 369.659c.339-.764.706-1.513 1.08-2.246 1.7-3.332 3.733-6.786 6.978-8.827 2.755-1.734 6.608-2.413 9.594-.879 2.59 1.33 4.151 4.065 6.514 5.767a42.738 42.738 0 004.954 2.605 7.44 7.44 0 013.813 3.921c.8 2.444-.519 5.052-.532 7.624a7.58 7.58 0 001.137 4.017 3.909 3.909 0 01.875 1.979 2.6 2.6 0 01-1.715 2.06c-2.626 1.241-5.693.793-8.581.481s-6.086-.378-8.369 1.418a24.329 24.329 0 00-2.589 2.792 4.072 4.072 0 01-6.25.637 26.771 26.771 0 01-5.326-6.041 16.421 16.421 0 01-3.173-6.557c-.519-2.975.346-5.952 1.59-8.751z" style="mix-blend-mode:multiply" opacity=".33"/><circle cx="122.212" cy="392.543" r="1.574" style="mix-blend-mode:multiply" opacity=".33"/><circle cx="118.115" cy="393.124" r="1.09" style="mix-blend-mode:multiply" opacity=".33"/><circle cx="125.931" cy="391.079" r=".988" style="mix-blend-mode:multiply" opacity=".33"/><circle cx="114.667" cy="393.532" r=".708" style="mix-blend-mode:multiply" opacity=".33"/><circle cx="129.052" cy="390.035" r=".432" style="mix-blend-mode:multiply" opacity=".33"/><circle cx="97.409" cy="368.931" r="1.014" style="mix-blend-mode:multiply" opacity=".33"/><circle cx="125.014" cy="357.133" r=".954" style="mix-blend-mode:multiply" opacity=".33"/><circle cx="131.215" cy="361.833" r=".864" style="mix-blend-mode:multiply" opacity=".33"/><circle cx="131.924" cy="364.281" r=".378" style="mix-blend-mode:multiply" opacity=".33"/></g><path d="M80.376 399.28l7.721-11.03a.692.692 0 01.964-.17l7.878 5.513a.692.692 0 01.17.964l-7.721 11.031a5 5 0 01-6.964 1.23l-.819-.574a5 5 0 01-1.23-6.963z" fill="#fff" stroke="#e6f3ff" stroke-miterlimit="10" stroke-width="2"/><path d="M89.06 388.081a.692.692 0 00-.963.171l-3.477 4.966a36.623 36.623 0 004.269 3.494 37.022 37.022 0 004.742 2.815l3.477-4.968a.69.69 0 00-.17-.963z" fill="#4e4e4e" stroke="#46505c" stroke-linecap="round" stroke-linejoin="round" stroke-width="4" opacity=".18"/><path d="M80.376 399.28l7.721-11.03a.692.692 0 01.964-.17l7.878 5.513a.692.692 0 01.17.964l-7.721 11.031a5 5 0 01-6.964 1.23l-.819-.574a5 5 0 01-1.23-6.963z" fill="none" stroke="#46505c" stroke-linecap="round" stroke-linejoin="round" stroke-width="4"/><circle cx="109.862" cy="366.746" r="32.576" fill="#fff" stroke="#e6f3ff" stroke-miterlimit="10" stroke-width="2"/><circle cx="109.862" cy="366.746" r="32.576" fill="none" stroke="#46505c" stroke-linecap="round" stroke-linejoin="round" stroke-width="4"/><circle cx="109.862" cy="366.746" r="25.355" fill="#845b5b"/><circle cx="109.862" cy="366.746" r="25.355" fill="none" stroke="#46505c" stroke-linecap="round" stroke-linejoin="round" stroke-width="2"/><path d="M93.287 361.482c.339-.763.706-1.513 1.08-2.246 1.7-3.331 3.734-6.785 6.978-8.827 2.756-1.734 6.608-2.412 9.594-.879 2.59 1.33 4.151 4.066 6.514 5.767a42.752 42.752 0 004.955 2.6 7.447 7.447 0 013.813 3.918c.8 2.445-.519 5.053-.533 7.624a7.58 7.58 0 001.137 4.017 3.91 3.91 0 01.876 1.979 2.6 2.6 0 01-1.715 2.061c-2.627 1.24-5.694.793-8.582.48s-6.085-.377-8.369 1.418a24.412 24.412 0 00-2.589 2.792 4.073 4.073 0 01-6.25.638 26.8 26.8 0 01-5.326-6.042 16.409 16.409 0 01-3.17-6.552c-.527-2.972.344-5.949 1.587-8.748z" style="mix-blend-mode:multiply" fill="#845b5b" opacity=".33"/><circle cx="114.99" cy="384.366" r="1.574" style="mix-blend-mode:multiply" fill="#845b5b" opacity=".33"/><circle cx="110.893" cy="384.947" r="1.09" style="mix-blend-mode:multiply" fill="#845b5b" opacity=".33"/><circle cx="118.709" cy="382.903" r=".988" style="mix-blend-mode:multiply" fill="#845b5b" opacity=".33"/><circle cx="107.445" cy="385.356" r=".708" style="mix-blend-mode:multiply" fill="#845b5b" opacity=".33"/><circle cx="121.83" cy="381.859" r=".432" style="mix-blend-mode:multiply" fill="#845b5b" opacity=".33"/><circle cx="90.187" cy="360.755" r="1.014" style="mix-blend-mode:multiply" fill="#845b5b" opacity=".33"/><circle cx="117.792" cy="348.956" r=".954" style="mix-blend-mode:multiply" fill="#845b5b" opacity=".33"/><circle cx="123.993" cy="353.656" r=".864" style="mix-blend-mode:multiply" fill="#845b5b" opacity=".33"/><circle cx="124.702" cy="356.104" r=".378" style="mix-blend-mode:multiply" fill="#845b5b" opacity=".33"/><circle cx="112.084" cy="368.84" r="2" fill="#845b5b"/><circle cx="105.57" cy="361.159" r="3.5" fill="#845b5b"/><rect x="170" y="133.904" width="260" height="164" rx="14" fill="none" stroke="#000" stroke-linecap="round" stroke-linejoin="round"/><rect x="170" y="133.904" width="260" height="164" rx="14" fill="#626c84"/><rect x="170" y="133.904" width="260" height="164" rx="14" fill="#626c84"/><rect x="170" y="133.904" width="260" height="155.016" rx="14" style="mix-blend-mode:multiply" fill="#626c84" opacity=".17"/><path d="M184 137.9h232a14 14 0 0114 14v132-136a14 14 0 00-14-14H184a14 14 0 00-14 14v4a14 14 0 0114-14z" fill="#fff" opacity=".1"/><path d="M249.227 297.904h16.069l119.153-164H368.38l-119.153 164zm25.339 0h4.944l119.154-164h-4.945l-119.153 164z" opacity=".1" fill="#fff"/><rect x="170" y="133.904" width="260" height="164" rx="14" fill="none" stroke="#46505c" stroke-linecap="round" stroke-linejoin="round" stroke-width="4"/><path fill="#fd848e" d="M412 152.384v126H188v-126z"/><path d="M264.409 278.384h16.069l91.544-126h-16.069l-91.544 126zm25.339 0h4.945l91.544-126h-4.944l-91.545 126z" opacity=".06" fill="#fff"/><path fill="none" stroke="#46505c" stroke-linecap="round" stroke-linejoin="round" d="M412 152.384v126H188v-126z"/><rect x="170" y="297.904" width="260" height="172" rx="14" fill="#e6f3ff"/><rect x="218" y="257.904" width="164" height="252" rx="10" transform="rotate(90 300 383.904)" fill="#fff" stroke="#e6f3ff" stroke-miterlimit="10" stroke-width="2"/><path d="M283.949 462.084h32.1a4 4 0 014 4v3.82h-40.1v-3.82a4 4 0 014-4z" fill="#e6f3ff"/><rect x="170" y="297.904" width="260" height="172" rx="14" fill="none" stroke="#46505c" stroke-linecap="round" stroke-linejoin="round" stroke-width="4"/><rect x="185" y="311.323" width="230" height="92" rx="3" fill="#e6f3ff"/><rect x="216.084" y="380.823" width="14" height="14" rx="1" fill="none" stroke="#626c84" stroke-linecap="round" stroke-linejoin="round"/><rect x="194.446" y="380.823" width="14" height="14" rx="1" fill="none" stroke="#626c84" stroke-linecap="round" stroke-linejoin="round"/><rect x="237.723" y="380.823" width="100.554" height="14" rx="1" fill="none" stroke="#626c84" stroke-linecap="round" stroke-linejoin="round"/><rect x="345.916" y="380.823" width="14" height="14" rx="1" fill="none" stroke="#626c84" stroke-linecap="round" stroke-linejoin="round"/><rect x="381.554" y="388.698" width="10" height="6.125" rx="1" fill="none" stroke="#626c84" stroke-linecap="round" stroke-linejoin="round"/><rect x="381.554" y="380.823" width="10" height="6.125" rx="1" fill="none" stroke="#626c84" stroke-linecap="round" stroke-linejoin="round"/><rect x="395.554" y="388.698" width="10" height="6.125" rx="1" fill="none" stroke="#626c84" stroke-linecap="round" stroke-linejoin="round"/><rect x="367.554" y="388.698" width="10" height="6.125" rx="1" fill="none" stroke="#626c84" stroke-linecap="round" stroke-linejoin="round"/><rect x="194.446" y="360.904" width="33.639" height="14" rx="1" fill="none" stroke="#626c84" stroke-linecap="round" stroke-linejoin="round"/><rect x="235.904" y="360.904" width="14" height="14" rx="1" fill="none" stroke="#626c84" stroke-linecap="round" stroke-linejoin="round"/><rect x="257.542" y="360.904" width="14" height="14" rx="1" fill="none" stroke="#626c84" stroke-linecap="round" stroke-linejoin="round"/><rect x="279.181" y="360.904" width="14" height="14" rx="1" fill="none" stroke="#626c84" stroke-linecap="round" stroke-linejoin="round"/><rect x="300.819" y="360.904" width="14" height="14" rx="1" fill="none" stroke="#626c84" stroke-linecap="round" stroke-linejoin="round"/><rect x="322.458" y="360.904" width="14" height="14" rx="1" fill="none" stroke="#626c84" stroke-linecap="round" stroke-linejoin="round"/><rect x="344.096" y="360.904" width="14" height="14" rx="1" fill="none" stroke="#626c84" stroke-linecap="round" stroke-linejoin="round"/><rect x="367.554" y="360.904" width="38" height="14" rx="1" fill="none" stroke="#626c84" stroke-linecap="round" stroke-linejoin="round"/><rect x="228.084" y="340.424" width="14" height="14" rx="1" fill="none" stroke="#626c84" stroke-linecap="round" stroke-linejoin="round"/><rect x="194.446" y="340.424" width="26" height="14" rx="1" fill="none" stroke="#626c84" stroke-linecap="round" stroke-linejoin="round"/><rect x="249.723" y="340.424" width="14" height="14" rx="1" fill="none" stroke="#626c84" stroke-linecap="round" stroke-linejoin="round"/><rect x="271.361" y="340.424" width="14" height="14" rx="1" fill="none" stroke="#626c84" stroke-linecap="round" stroke-linejoin="round"/><rect x="293" y="340.424" width="14" height="14" rx="1" fill="none" stroke="#626c84" stroke-linecap="round" stroke-linejoin="round"/><rect x="314.639" y="340.424" width="14" height="14" rx="1" fill="none" stroke="#626c84" stroke-linecap="round" stroke-linejoin="round"/><rect x="336.277" y="340.424" width="14" height="14" rx="1" fill="none" stroke="#626c84" stroke-linecap="round" stroke-linejoin="round"/><rect x="357.916" y="340.424" width="14" height="14" rx="1" fill="none" stroke="#626c84" stroke-linecap="round" stroke-linejoin="round"/><rect x="379.554" y="340.424" width="26" height="14" rx="1" fill="none" stroke="#626c84" stroke-linecap="round" stroke-linejoin="round"/><rect x="216.347" y="320.823" width="14" height="14" rx="1" fill="none" stroke="#626c84" stroke-linecap="round" stroke-linejoin="round"/><rect x="194.446" y="320.823" width="14" height="14" rx="1" fill="none" stroke="#626c84" stroke-linecap="round" stroke-linejoin="round"/><rect x="238.248" y="320.823" width="14" height="14" rx="1" fill="none" stroke="#626c84" stroke-linecap="round" stroke-linejoin="round"/><rect x="260.149" y="320.823" width="14" height="14" rx="1" fill="none" stroke="#626c84" stroke-linecap="round" stroke-linejoin="round"/><rect x="282.05" y="320.823" width="14" height="14" rx="1" fill="none" stroke="#626c84" stroke-linecap="round" stroke-linejoin="round"/><rect x="303.95" y="320.823" width="14" height="14" rx="1" fill="none" stroke="#626c84" stroke-linecap="round" stroke-linejoin="round"/><rect x="325.851" y="320.823" width="14" height="14" rx="1" fill="none" stroke="#626c84" stroke-linecap="round" stroke-linejoin="round"/><rect x="347.752" y="320.823" width="14" height="14" rx="1" fill="none" stroke="#626c84" stroke-linecap="round" stroke-linejoin="round"/><rect x="369.653" y="320.823" width="14" height="14" rx="1" fill="none" stroke="#626c84" stroke-linecap="round" stroke-linejoin="round"/><rect x="391.554" y="320.823" width="14" height="14" rx="1" fill="none" stroke="#626c84" stroke-linecap="round" stroke-linejoin="round"/><rect x="216.084" y="380.823" width="14" height="14" rx="1" fill="#626c84"/><rect x="194.446" y="380.823" width="14" height="14" rx="1" fill="#626c84"/><rect x="237.723" y="380.823" width="100.554" height="14" rx="1" fill="#626c84"/><rect x="345.916" y="380.823" width="14" height="14" rx="1" fill="#626c84"/><rect x="381.554" y="388.698" width="10" height="6.125" rx="1" fill="#626c84"/><rect x="381.554" y="380.823" width="10" height="6.125" rx="1" fill="#626c84"/><rect x="395.554" y="388.698" width="10" height="6.125" rx="1" fill="#626c84"/><rect x="367.554" y="388.698" width="10" height="6.125" rx="1" fill="#626c84"/><rect x="194.446" y="360.904" width="33.639" height="14" rx="1" fill="#626c84"/><rect x="235.904" y="360.904" width="14" height="14" rx="1" fill="#626c84"/><rect x="257.542" y="360.904" width="14" height="14" rx="1" fill="#626c84"/><rect x="279.181" y="360.904" width="14" height="14" rx="1" fill="#626c84"/><rect x="300.819" y="360.904" width="14" height="14" rx="1" fill="#626c84"/><rect x="322.458" y="360.904" width="14" height="14" rx="1" fill="#626c84"/><rect x="344.096" y="360.904" width="14" height="14" rx="1" fill="#626c84"/><rect x="367.554" y="360.904" width="38" height="14" rx="1" fill="#626c84"/><rect x="228.084" y="340.424" width="14" height="14" rx="1" fill="#626c84"/><rect x="194.446" y="340.424" width="26" height="14" rx="1" fill="#626c84"/><rect x="249.723" y="340.424" width="14" height="14" rx="1" fill="#626c84"/><rect x="271.361" y="340.424" width="14" height="14" rx="1" fill="#626c84"/><rect x="293" y="340.424" width="14" height="14" rx="1" fill="#626c84"/><rect x="314.639" y="340.424" width="14" height="14" rx="1" fill="#626c84"/><rect x="336.277" y="340.424" width="14" height="14" rx="1" fill="#626c84"/><rect x="357.916" y="340.424" width="14" height="14" rx="1" fill="#626c84"/><rect x="379.554" y="340.424" width="26" height="14" rx="1" fill="#626c84"/><rect x="216.347" y="320.823" width="14" height="14" rx="1" fill="#626c84"/><rect x="194.446" y="320.823" width="14" height="14" rx="1" fill="#626c84"/><rect x="238.248" y="320.823" width="14" height="14" rx="1" fill="#626c84"/><rect x="260.149" y="320.823" width="14" height="14" rx="1" fill="#626c84"/><rect x="282.05" y="320.823" width="14" height="14" rx="1" fill="#626c84"/><rect x="303.95" y="320.823" width="14" height="14" rx="1" fill="#626c84"/><rect x="325.851" y="320.823" width="14" height="14" rx="1" fill="#626c84"/><rect x="347.752" y="320.823" width="14" height="14" rx="1" fill="#626c84"/><rect x="369.653" y="320.823" width="14" height="14" rx="1" fill="#626c84"/><rect x="391.554" y="320.823" width="14" height="14" rx="1" fill="#626c84"/><path d="M215 288.92h170v13.446a4 4 0 01-4 4H219a4 4 0 01-4-4V288.92z" fill="#626c84"/><path fill="#fff" opacity=".12" d="M215 288.92h170v2H215z"/><path d="M381 302.365H219a4 4 0 01-4-4v4a4 4 0 004 4h162a4 4 0 004-4v-4a4 4 0 01-4 4z" style="mix-blend-mode:multiply" fill="#626c84" opacity=".25"/><path d="M215 288.92h170v13.446a4 4 0 01-4 4H219a4 4 0 01-4-4V288.92h0z" fill="none" stroke="#46505c" stroke-linecap="round" stroke-linejoin="round" stroke-width="2"/><rect x="263" y="408.323" width="74" height="51" rx="2" fill="#e6f3ff"/><rect x="263" y="408.323" width="74" height="51" rx="2" fill="none" stroke="#626c84" stroke-linecap="round" stroke-linejoin="round"/><circle cx="300" cy="144.052" r="3" fill="#fff" opacity=".52"/><circle cx="300" cy="144.052" r="3" fill="none" stroke="#46505c" stroke-linecap="round" stroke-linejoin="round"/><rect x="349.36" y="165.129" width="14" height="2" rx="1" fill="#fff"/><rect x="375.334" y="165.129" width="14" height="2" rx="1" fill="#fff"/><rect x="323.387" y="165.129" width="14" height="2" rx="1" fill="#fff"/><circle cx="207.233" cy="166.65" r="4.837" fill="#fff"/><path d="M249.324 219.611h101.234v3.645H249.324zm12.803-12.098h75.629v3.698h-75.629z" opacity=".72" fill="#fff"/><rect x="283.113" y="247.945" width="39.773" height="10.962" rx="5.481" fill="none" stroke="#fff" stroke-miterlimit="10"/><path style="mix-blend-mode:screen" fill="#331f5b" opacity=".15" d="M199.191 600.399h205.4-205.4zm0 0h205.4-205.4z"/></svg>