<svg xmlns="http://www.w3.org/2000/svg" viewBox="120 120 900 880"><g opacity=".39" fill="#fff"><circle cx="178.133" cy="460.724" r="20.388"/><circle cx="178.133" cy="460.724" r="8.738"/><path d="M209.878 431.476l-12.612 7.282.019.032a29.053 29.053 0 00-2.907-2.232l.034.01 3.769-14.068a4.37 4.37 0 00-3.089-5.351l-9.847-2.638a4.369 4.369 0 00-5.35 3.089l-3.769 14.067h.021a29.07 29.07 0 00-3.6.474l.016-.01-7.281-12.611a4.368 4.368 0 00-5.968-1.6l-8.828 5.1a4.367 4.367 0 00-1.6 5.967l7.281 12.612.016-.009a29.1 29.1 0 00-2.212 2.884l.006-.02-14.067-3.77a4.369 4.369 0 00-5.35 3.09l-2.639 9.846a4.37 4.37 0 003.09 5.351l14.066 3.769.009-.034a28.96 28.96 0 00.479 3.633l-.018-.032-12.612 7.281a4.37 4.37 0 00-1.6 5.968l5.1 8.828a4.368 4.368 0 005.968 1.6l12.611-7.281-.028-.048a29.064 29.064 0 002.944 2.255l-.061-.016-3.769 14.066a4.369 4.369 0 003.089 5.351l9.847 2.638a4.369 4.369 0 005.35-3.089l3.769-14.067-.074-.02a28.663 28.663 0 003.706-.487l-.065.038 7.282 12.611a4.368 4.368 0 005.968 1.6l8.828-5.1a4.369 4.369 0 001.6-5.967l-7.281-12.612-.065.037a28.875 28.875 0 002.275-2.966l-.02.074 14.066 3.77a4.369 4.369 0 005.351-3.09l2.638-9.846a4.368 4.368 0 00-3.089-5.351L207.2 458.72l-.017.061a28.938 28.938 0 00-.481-3.677l.028.049 12.612-7.281a4.37 4.37 0 001.6-5.968l-5.1-8.828a4.369 4.369 0 00-5.964-1.6z"/></g><circle cx="302.744" cy="222.858" r="51.548" fill="#fff" opacity=".39"/><path fill="none" stroke="#1e223b" stroke-linecap="round" stroke-linejoin="round" stroke-width="2" d="M302.036 223.418l27.847-16.182-.086 30.273-27.847 16.183.086-30.274z"/><path fill="none" stroke="#1e223b" stroke-linecap="round" stroke-linejoin="round" stroke-width="2" d="M275.69 208.208l27.847-16.183 26.346 15.211-27.847 16.182-26.346-15.21z"/><path fill="#028b9e" stroke="#1e223b" stroke-linecap="round" stroke-linejoin="round" stroke-width="2" d="M275.69 208.208l27.847-16.183 26.346 15.211-27.847 16.182-26.346-15.21z"/><path fill="#028b9e" stroke="#1e223b" stroke-linecap="round" stroke-linejoin="round" stroke-width="2" opacity=".4" d="M302.036 223.418l-.086 30.274-26.346-15.211.086-30.273 26.346 15.21z"/><path fill="none" stroke="#1e223b" stroke-linecap="round" stroke-linejoin="round" stroke-width="2" d="M302.036 223.418l-.086 30.274-26.346-15.211.086-30.273 26.346 15.21z"/><circle cx="302.744" cy="222.858" r="51.548" fill="none" stroke="#1e223b" stroke-linecap="round" stroke-linejoin="round" stroke-width="2"/><rect x="361.5" y="623.737" width="318" height="238" rx="18" style="mix-blend-mode:multiply" fill="#161616" stroke="#1e223b" stroke-miterlimit="10" opacity=".11"/><rect x="361.5" y="609.737" width="318" height="14" rx="7" style="mix-blend-mode:multiply" fill="#161616" stroke="#1e223b" stroke-miterlimit="10" opacity=".11"/><rect x="351.5" y="615.737" width="318" height="238" rx="18" fill="#2f4584"/><rect x="351.5" y="615.737" width="318" height="232" rx="18" fill="#fff"/><path d="M558 833.566h-1.5a6 6 0 00-6 6v7.172a3 3 0 01-6 0v-7.172a6 6 0 00-6-6H537a6 6 0 00-6 6v7.172a3 3 0 01-6 0v-7.172a6 6 0 00-6-6h-1.5a6 6 0 00-6 6v7.172a3 3 0 01-6 0v-45a6 6 0 00-6-6H498a6 6 0 00-6 6v78.433l-11.508-19.933a6 6 0 00-8.2-2.2l-1.3.75a6 6 0 00-2.2 8.2l24.044 41.645a12 12 0 0011.156 7.6h2v24.653h-3.949v24.866h-1.933a6.486 6.486 0 00-6.486 6.486v30.262h68.757v-30.262a6.486 6.486 0 00-6.486-6.486h-1.943v-24.866H550v-24.653h2a12 12 0 0012-12v-64.667a6 6 0 00-6-6z" style="mix-blend-mode:multiply" fill="#161616" stroke="#1e223b" stroke-miterlimit="10" opacity=".11"/><path d="M443.064 829.737a12 12 0 0011.947-10.93l22.121-38.315a6 6 0 00-2.2-8.2l-1.3-.75a6 6 0 00-8.2 2.2l-10.375 17.971v-76.472a6 6 0 00-6-6h-1.5a6 6 0 00-6 6v45a3 3 0 01-6 0v-53.694a6 6 0 00-6-6h-1.5a6 6 0 00-6 6v53.695a3 3 0 01-6 0v-45a6 6 0 00-6-6h-1.5a6 6 0 00-6 6v45a3 3 0 01-6 0v-30.75a6 6 0 00-6-6h-1.5a6 6 0 00-6 6v88.245a12 12 0 0012 12h2.58v24.653h-4.529v24.865h-1.943a6.487 6.487 0 00-6.487 6.487V1002.5h68.758V885.742a6.487 6.487 0 00-6.487-6.487h-1.943V854.39h-3.369v-24.653z" style="mix-blend-mode:multiply" fill="#161616" stroke="#1e223b" stroke-miterlimit="10" opacity=".11"/><rect x="366" y="633.237" width="289" height="121" rx="4" fill="#1e223b" stroke="#1e223b" stroke-miterlimit="11" stroke-width="2" opacity=".15"/><rect x="351.5" y="615.737" width="318" height="232" rx="18" fill="none" stroke="#1e223b" stroke-linecap="round" stroke-linejoin="round" stroke-width="2"/><rect x="351.5" y="615.737" width="318" height="238" rx="18" fill="none" stroke="#1e223b" stroke-linecap="round" stroke-linejoin="round" stroke-width="2"/><rect x="351.5" y="383.737" width="318" height="232" rx="18" fill="#2f4584"/><rect x="351.5" y="383.737" width="318" height="232" rx="18" fill="none" stroke="#1e223b" stroke-linecap="round" stroke-linejoin="round" stroke-width="2"/><rect x="400" y="346.237" width="220" height="306" rx="12" transform="rotate(90 510 499.738)" fill="#fff"/><path fill="#ff5855" stroke="#1e223b" stroke-miterlimit="10" d="M639.501 413.737v172h-258v-172z"/><rect x="400" y="346.237" width="220" height="306" rx="12" transform="rotate(90 510 499.738)" fill="none" stroke="#1e223b" stroke-linecap="round" stroke-linejoin="round" stroke-width="2"/><path fill="none" stroke="#1e223b" stroke-linecap="round" stroke-linejoin="round" stroke-width="2" d="M639.501 413.737v172h-258v-172z"/><rect x="467.5" y="763.737" width="86" height="60" rx="4.25" fill="#1e223b" opacity=".1"/><rect x="467.5" y="763.737" width="86" height="60" rx="4.25" fill="none" stroke="#1e223b" stroke-linecap="round" stroke-linejoin="round" stroke-width="2"/><path fill="#263c72" d="M473 845.737h76v8h-76z"/><path fill="none" stroke="#1e223b" stroke-linecap="round" stroke-linejoin="round" stroke-width="2" d="M473 845.737h76v8h-76z"/><rect x="417.5" y="359.737" width="200" height="224" rx="6" style="mix-blend-mode:multiply" fill="#161616" stroke="#1e223b" stroke-miterlimit="10" opacity=".11"/><rect x="412" y="355.737" width="200" height="224" rx="6" fill="#fff"/><path d="M412 545.737h200v28a6 6 0 01-6 6H418a6 6 0 01-6-6v-28z" fill="#efefef"/><rect x="412" y="355.737" width="200" height="224" rx="6" fill="none" stroke="#1e223b" stroke-linecap="round" stroke-linejoin="round" stroke-width="2"/><path d="M417.427 355.737h189.146a5.427 5.427 0 015.427 5.428v12.573H412v-12.573a5.427 5.427 0 015.427-5.428z" fill="#363d56"/><path d="M417.427 355.737h189.146a5.427 5.427 0 015.427 5.428v12.573h0-200 0v-12.573a5.427 5.427 0 015.427-5.428z" fill="none" stroke="#1e223b" stroke-linecap="round" stroke-linejoin="round" stroke-width="2"/><path fill="#424960" d="M412 373.737h200v8H412z"/><path fill="none" stroke="#1e223b" stroke-linecap="round" stroke-linejoin="round" stroke-width="2" d="M412 373.737h200v8H412z"/><circle cx="423.167" cy="364.737" r="3" fill="#f73e39"/><circle cx="423.167" cy="364.737" r="3" fill="none" stroke="#1e223b" stroke-linecap="round" stroke-linejoin="round" stroke-width="2"/><circle cx="435.435" cy="364.737" r="3" fill="#383838"/><circle cx="435.435" cy="364.737" r="3" fill="none" stroke="#1e223b" stroke-linecap="round" stroke-linejoin="round" stroke-width="2"/><circle cx="446.662" cy="364.737" r="3" fill="#c6c6c6"/><circle cx="446.662" cy="364.737" r="3" fill="none" stroke="#1e223b" stroke-linecap="round" stroke-linejoin="round" stroke-width="2"/><rect x="460.5" y="361.737" width="68" height="6" rx="3" fill="#8289a3" opacity=".28"/><circle cx="178.133" cy="460.724" r="20.388" fill="none" stroke="#1e223b" stroke-linecap="round" stroke-linejoin="round" stroke-width="2"/><circle cx="178.133" cy="460.724" r="8.738" fill="none" stroke="#1e223b" stroke-linecap="round" stroke-linejoin="round" stroke-width="2"/><path d="M209.878 431.476l-12.612 7.282.019.032a29.053 29.053 0 00-2.907-2.232l.034.01 3.769-14.068a4.37 4.37 0 00-3.089-5.351l-9.847-2.638a4.369 4.369 0 00-5.35 3.089l-3.769 14.067h.021a29.07 29.07 0 00-3.6.474l.016-.01-7.281-12.611a4.368 4.368 0 00-5.968-1.6l-8.828 5.1a4.367 4.367 0 00-1.6 5.967l7.281 12.612.016-.009a29.1 29.1 0 00-2.212 2.884l.006-.02-14.067-3.77a4.369 4.369 0 00-5.35 3.09l-2.639 9.846a4.37 4.37 0 003.09 5.351l14.066 3.769.009-.034a28.96 28.96 0 00.479 3.633l-.018-.032-12.612 7.281a4.37 4.37 0 00-1.6 5.968l5.1 8.828a4.368 4.368 0 005.968 1.6l12.611-7.281-.028-.048a29.064 29.064 0 002.944 2.255l-.061-.016-3.769 14.066a4.369 4.369 0 003.089 5.351l9.847 2.638a4.369 4.369 0 005.35-3.089l3.769-14.067-.074-.02a28.663 28.663 0 003.706-.487l-.065.038 7.282 12.611a4.368 4.368 0 005.968 1.6l8.828-5.1a4.369 4.369 0 001.6-5.967l-7.281-12.612-.065.037a28.875 28.875 0 002.275-2.966l-.02.074 14.066 3.77a4.369 4.369 0 005.351-3.09l2.638-9.846a4.368 4.368 0 00-3.089-5.351L207.2 458.72l-.017.061a28.938 28.938 0 00-.481-3.677l.028.049 12.612-7.281a4.37 4.37 0 001.6-5.968l-5.1-8.828a4.369 4.369 0 00-5.964-1.6z" fill="none" stroke="#1e223b" stroke-linecap="round" stroke-linejoin="round" stroke-width="2"/><g opacity=".32" fill="none" stroke="#1e223b" stroke-linecap="round" stroke-linejoin="round"><circle cx="451.942" cy="415.293" r="7.72"/><circle cx="451.942" cy="415.293" r="3.309"/><path d="M468.274 415.961l-5.327-1.427v.014a10.855 10.855 0 00-.18-1.376l.006.011 4.776-2.757a1.654 1.654 0 00.6-2.26l-1.93-3.342a1.653 1.653 0 00-2.259-.606l-4.776 2.757v.007a10.927 10.927 0 00-1.092-.838h.007l1.427-5.327a1.654 1.654 0 00-1.169-2.026l-3.729-1a1.655 1.655 0 00-2.026 1.17l-1.427 5.326h.007a11.054 11.054 0 00-1.365.18h.007l-2.757-4.775a1.655 1.655 0 00-2.26-.606l-3.343 1.93a1.655 1.655 0 00-.605 2.26l2.757 4.776.011-.007a11.1 11.1 0 00-.844 1.1v-.014l-5.326-1.427a1.654 1.654 0 00-2.026 1.17l-1 3.728a1.655 1.655 0 001.17 2.027l5.326 1.427.006-.021a10.929 10.929 0 00.184 1.392l-.012-.02-4.776 2.757a1.654 1.654 0 00-.605 2.26l1.93 3.342a1.654 1.654 0 002.26.606l4.775-2.757-.014-.025a10.861 10.861 0 001.122.861l-.027-.007-1.427 5.327a1.654 1.654 0 001.17 2.026l3.728 1a1.655 1.655 0 002.026-1.17l1.433-5.327-.027-.007a10.9 10.9 0 001.4-.185l-.025.015 2.757 4.775a1.655 1.655 0 002.26.606l3.343-1.93a1.655 1.655 0 00.605-2.26l-2.757-4.776-.02.012a10.978 10.978 0 00.855-1.113v.02l5.326 1.428a1.655 1.655 0 002.026-1.17l1-3.729a1.654 1.654 0 00-1.169-2.025z"/></g><g opacity=".49" fill="#fff"><circle cx="832.171" cy="251.63" r="19.096"/><circle cx="832.171" cy="251.63" r="8.184"/><path d="M861.905 224.236l-11.813 6.82.018.03a27.136 27.136 0 00-2.723-2.09l.032.009 3.53-13.176a4.092 4.092 0 00-2.893-5.011l-9.223-2.471a4.092 4.092 0 00-5.012 2.893l-3.53 13.175.02.006a27.109 27.109 0 00-3.376.443l.015-.009-6.82-11.812a4.093 4.093 0 00-5.59-1.5l-8.269 4.774a4.092 4.092 0 00-1.5 5.59l6.82 11.812.015-.009a27.076 27.076 0 00-2.072 2.7v-.019l-13.175-3.531a4.093 4.093 0 00-5.012 2.894l-2.471 9.223a4.092 4.092 0 002.894 5.011l13.175 3.53.008-.031a27.174 27.174 0 00.449 3.4l-.017-.03-11.813 6.82a4.091 4.091 0 00-1.5 5.589l4.774 8.269a4.093 4.093 0 005.59 1.5l11.812-6.82-.026-.046a27.08 27.08 0 002.757 2.113l-.057-.016-3.53 13.176a4.091 4.091 0 002.893 5.011l9.223 2.471a4.092 4.092 0 005.012-2.893l3.53-13.175-.069-.019a26.958 26.958 0 003.47-.456l-.06.035 6.82 11.812a4.092 4.092 0 005.59 1.5l8.268-4.774a4.091 4.091 0 001.5-5.59l-6.82-11.812-.06.035a27.1 27.1 0 002.13-2.778l-.018.069 13.175 3.531a4.093 4.093 0 005.012-2.894l2.471-9.222a4.093 4.093 0 00-2.894-5.012l-13.175-3.53-.015.057a27.058 27.058 0 00-.451-3.444l.026.045 11.813-6.82a4.091 4.091 0 001.5-5.589l-4.763-8.266a4.093 4.093 0 00-5.595-1.498z"/></g><circle cx="832.178" cy="251.629" r="19.096" fill="none" stroke="#1e223b" stroke-linecap="round" stroke-linejoin="round" stroke-width="2"/><circle cx="832.178" cy="251.629" r="8.184" fill="none" stroke="#1e223b" stroke-linecap="round" stroke-linejoin="round" stroke-width="2"/><path d="M872.573 253.284l-13.175-3.53-.009.033a27.165 27.165 0 00-.447-3.4l.016.028 11.813-6.82a4.091 4.091 0 001.5-5.589l-4.771-8.272a4.093 4.093 0 00-5.59-1.5l-11.813 6.82.01.018a26.869 26.869 0 00-2.7-2.074h.017l3.53-13.176a4.092 4.092 0 00-2.894-5.011l-9.222-2.471a4.092 4.092 0 00-5.012 2.893l-3.53 13.175h.017a27.084 27.084 0 00-3.376.445l.018-.01-6.82-11.812a4.093 4.093 0 00-5.59-1.5l-8.269 4.774a4.092 4.092 0 00-1.5 5.59l6.82 11.812.028-.016a27.189 27.189 0 00-2.089 2.723l.009-.033-13.175-3.531a4.093 4.093 0 00-5.012 2.894l-2.471 9.222a4.093 4.093 0 002.893 5.012l13.176 3.53.013-.05a27.229 27.229 0 00.456 3.443l-.029-.051-11.813 6.82a4.091 4.091 0 00-1.5 5.589l4.774 8.269a4.093 4.093 0 005.59 1.5l11.812-6.82-.035-.062a26.977 26.977 0 002.777 2.131l-.068-.018-3.53 13.175a4.092 4.092 0 002.893 5.012l9.223 2.471a4.09 4.09 0 005.011-2.893l3.531-13.175-.068-.018a27.1 27.1 0 003.471-.458l-.062.036 6.82 11.812a4.091 4.091 0 005.59 1.5l8.268-4.774a4.091 4.091 0 001.5-5.59l-6.82-11.812-.051.03a27.068 27.068 0 002.116-2.755l-.013.051 13.175 3.531a4.093 4.093 0 005.012-2.894l2.471-9.222a4.093 4.093 0 00-2.896-5.002z" fill="none" stroke="#1e223b" stroke-linecap="round" stroke-linejoin="round" stroke-width="2"/><path d="M587.47 253.288h-26.2l-27.34 18.227v-18.227h-19.366a9.113 9.113 0 01-9.113-9.113v-50.123a9.113 9.113 0 019.113-9.113h72.906a9.113 9.113 0 019.114 9.113v50.123a9.113 9.113 0 01-9.114 9.113z" fill="#fff"/><path d="M587.47 253.288h-26.2l-27.34 18.227v-18.227h-19.366a9.113 9.113 0 01-9.113-9.113v-50.123a9.113 9.113 0 019.113-9.113h72.906a9.113 9.113 0 019.114 9.113v50.123a9.113 9.113 0 01-9.114 9.113z" fill="none" stroke="#1e223b" stroke-linecap="round" stroke-linejoin="round" stroke-width="2"/><path d="M588.4 175.657h16.966l17.7 11.8v-11.8H635.6a5.9 5.9 0 005.9-5.9V137.3a5.9 5.9 0 00-5.9-5.9h-47.2a5.9 5.9 0 00-5.9 5.9v32.455a5.9 5.9 0 005.9 5.902z" fill="#fff" opacity=".5"/><path d="M588.4 175.657h16.966l17.7 11.8v-11.8H635.6a5.9 5.9 0 005.9-5.9V137.3a5.9 5.9 0 00-5.9-5.9h-47.2a5.9 5.9 0 00-5.9 5.9v32.455a5.9 5.9 0 005.9 5.902z" fill="none" stroke="#1e223b" stroke-linecap="round" stroke-linejoin="round" stroke-width="2"/><path d="M649.964 811.97a13.232 13.232 0 11-13.232-13.233 13.232 13.232 0 0113.232 13.233z" fill="#dd4814"/><path d="M627.734 810.2a1.767 1.767 0 101.766 1.77 1.767 1.767 0 00-1.766-1.77zm12.614 8.029a1.766 1.766 0 102.412.647 1.767 1.767 0 00-2.412-.644zm-8.776-6.263a5.15 5.15 0 012.194-4.221l-1.292-2.164a7.683 7.683 0 00-3.173 4.462 2.481 2.481 0 010 3.847 7.683 7.683 0 003.173 4.462l1.292-2.164a5.15 5.15 0 01-2.194-4.219zm5.16-5.16a5.16 5.16 0 015.139 4.7l2.518-.037a7.654 7.654 0 00-2.28-4.978 2.482 2.482 0 01-3.327-1.923 7.672 7.672 0 00-5.451.516l1.227 2.2a5.147 5.147 0 012.174-.475zm0 10.321a5.147 5.147 0 01-2.174-.48l-1.227 2.2a7.677 7.677 0 005.451.515 2.482 2.482 0 013.327-1.923 7.654 7.654 0 002.28-4.978l-2.518-.037a5.159 5.159 0 01-5.139 4.706zm3.616-11.423a1.766 1.766 0 10-.647-2.413 1.765 1.765 0 00.647 2.416z" fill="#fff"/><path fill="#777bb4" d="M193.132 692.759l28.057-16.306-.086 30.503-28.058 16.305.087-30.502z"/><path fill="none" stroke="#1e223b" stroke-linecap="round" stroke-linejoin="round" stroke-width="2" d="M193.132 692.759l28.057-16.306-.086 30.503-28.058 16.305.087-30.502z"/><path fill="#ff5855" stroke="#1e223b" stroke-miterlimit="10" opacity=".88" d="M166.587 677.433l28.057-16.306 26.545 15.326-28.057 16.306-26.545-15.326z"/><path fill="#0270bb" d="M193.132 692.759l-.087 30.502-26.545-15.326.087-30.502 26.545 15.326z"/><path fill="none" stroke="#1e223b" stroke-linecap="round" stroke-linejoin="round" stroke-width="2" d="M166.587 677.433l28.057-16.306 26.545 15.326-28.057 16.306-26.545-15.326z"/><path fill="none" stroke="#1e223b" stroke-linecap="round" stroke-linejoin="round" stroke-width="2" d="M193.132 692.759l-.087 30.502-26.545-15.326.087-30.502 26.545 15.326z"/><circle cx="172.545" cy="643.737" r="6" fill="#fff" opacity=".59"/><circle cx="172.545" cy="643.737" r="6" fill="none" stroke="#1e223b" stroke-linecap="round" stroke-linejoin="round" stroke-width="2"/><circle cx="193.045" cy="643.737" r="6" fill="#fff" opacity=".59"/><circle cx="193.045" cy="643.737" r="6" fill="none" stroke="#1e223b" stroke-linecap="round" stroke-linejoin="round" stroke-width="2"/><circle cx="213.545" cy="643.737" r="6" fill="#fff" opacity=".59"/><circle cx="897.25" cy="520.99" r="39.5" fill="#fff" opacity=".32"/><circle cx="213.545" cy="643.737" r="6" fill="none" stroke="#1e223b" stroke-linecap="round" stroke-linejoin="round" stroke-width="2"/><path fill="#0270bb" opacity=".12" d="M897.792 521.419l-21.338-12.4.065 23.198 21.339 12.4-.066-23.198z"/><path fill="none" stroke="#1e223b" stroke-linecap="round" stroke-linejoin="round" stroke-width="2" d="M897.792 521.419l-21.338-12.4.065 23.198 21.339 12.4-.066-23.198z"/><path fill="#0270bb" opacity=".47" d="M917.98 509.764l-21.338-12.401-20.188 11.656 21.338 12.4 20.188-11.655z"/><path fill="none" stroke="#1e223b" stroke-linecap="round" stroke-linejoin="round" stroke-width="2" d="M917.98 509.764l-21.338-12.401-20.188 11.656 21.338 12.4 20.188-11.655z"/><path fill="#fff" stroke="#1e223b" stroke-linecap="round" stroke-linejoin="round" stroke-width="2" d="M897.792 521.419l.066 23.198 20.188-11.655-.066-23.198-20.188 11.655z"/><path fill="none" stroke="#1e223b" stroke-linecap="round" stroke-linejoin="round" stroke-width="2" d="M897.792 521.419l.066 23.198 20.188-11.655-.066-23.198-20.188 11.655z"/><circle cx="897.25" cy="520.99" r="39.5" fill="none" stroke="#1e223b" stroke-linecap="round" stroke-linejoin="round" stroke-width="2"/><rect x="698.509" y="274.479" width="113.356" height="59.443" rx="11.889" fill="#777bb4"/><rect x="698.509" y="274.479" width="113.356" height="59.443" rx="11.889" fill="none" stroke="#1e223b" stroke-linecap="round" stroke-linejoin="round" stroke-width="2"/><rect x="796.602" y="545.49" width="88.078" height="45.209" rx="9.042" fill="#0270bb"/><rect x="796.602" y="545.49" width="88.078" height="45.209" rx="9.042" fill="none" stroke="#1e223b" stroke-linecap="round" stroke-linejoin="round" stroke-width="2"/><path d="M810.184 567.821c0-6.462 4.8-10.823 10.979-10.823a9.382 9.382 0 018.376 4.674l-3.106 1.631a6.183 6.183 0 00-5.27-3.043c-4.14 0-7.215 3.137-7.215 7.561 0 4.36 3.075 7.559 7.215 7.559a6.254 6.254 0 005.27-3.043l3.137 1.569a9.556 9.556 0 01-8.407 4.737c-6.18 0-10.979-4.392-10.979-10.822zm23.304 7.496l2.071-2.854a8.983 8.983 0 006.619 2.917c3.011 0 4.172-1.474 4.172-2.886 0-4.392-12.172-1.662-12.172-9.347 0-3.483 3.012-6.149 7.624-6.149a10.829 10.829 0 017.811 2.949l-2.071 2.728a8.533 8.533 0 00-6.086-2.415c-2.133 0-3.513 1.067-3.513 2.6 0 3.922 12.171 1.506 12.171 9.286 0 3.482-2.478 6.493-8.093 6.493a11.438 11.438 0 01-8.533-3.322zm20.984 0l2.071-2.854a8.985 8.985 0 006.619 2.917c3.011 0 4.172-1.474 4.172-2.886 0-4.392-12.172-1.662-12.172-9.347 0-3.483 3.012-6.149 7.624-6.149a10.829 10.829 0 017.811 2.949l-2.071 2.728a8.533 8.533 0 00-6.086-2.415c-2.133 0-3.513 1.067-3.513 2.6 0 3.922 12.171 1.506 12.171 9.286 0 3.482-2.478 6.493-8.093 6.493a11.438 11.438 0 01-8.533-3.322zM715.38 317.476v-26.65h11.747c5.593 0 8.669 3.8 8.669 8.35 0 4.515-3.115 8.311-8.669 8.311h-7.072v9.989zm15.622-18.3c0-2.557-1.878-4.234-4.515-4.234h-6.432v8.43h6.432c2.637 0 4.513-1.679 4.513-4.196zm30.238 18.3v-11.667h-13.864v11.667H742.7v-26.65h4.674v10.867h13.866v-10.867h4.674v26.65zm13.337 0v-26.65h11.746c5.593 0 8.67 3.8 8.67 8.35 0 4.515-3.116 8.311-8.67 8.311h-7.072v9.989zm15.621-18.3c0-2.557-1.878-4.234-4.515-4.234h-6.432v8.43h6.432c2.637 0 4.517-1.679 4.517-4.196z" fill="#fff"/><path d="M579.063 554.987c.281.407.453.375.671.282s11.469-3.891 11.813-4.016.234-.234.125-.406-3.859-5.266-4.047-5.563-.281-.234-.578-.14l-11.926 3.1s3.66 6.334 3.942 6.74zM592.5 549.8v-5.963l-3.709.988c1.011 1.352 2.591 3.468 3.709 4.975zm-3.72-12.317c-.184.041-4.254.777-4.5.81s-.167.176-.067.318l3.581 4.914s4.379-1.087 4.647-1.145l.063-.015v-.651a503.26 503.26 0 01-3.152-4.014c-.225-.309-.384-.259-.568-.217z" fill="#f35045"/><path d="M563.174 529.764c.881-.04.961.161 1.348.735l9.728 16.262 12.23-2.93a4201.33 4201.33 0 00-4.051-5.738c-.334-.468.008-.686.551-.777s5.223-.878 5.624-.936.719-.2 1.371.585c.333.4 1.464 1.809 2.525 3.129v-7.607a6.762 6.762 0 00-6.75-6.75h-22.5a6.5 6.5 0 00-4.769 1.981 6.626 6.626 0 00-1.62 2.538c2.205-.181 5.7-.464 6.313-.492z" fill="#f35045"/><path d="M580.166 557.176c-1.032.313-1.494.468-2.166-.47-.5-.7-3.224-5.6-4.558-8.019-2.525.662-7.146 1.868-8.478 2.188a1.642 1.642 0 01-2.07-.948c-.15-.337-3.963-8.558-6.394-13.832v18.892a6.762 6.762 0 006.75 6.75h22.5a6.76 6.76 0 006.75-6.75v-2.219c-2.762 1.01-11.639 4.2-12.334 4.408z" fill="#f35045"/><path d="M565 548.981c.365-.084 7.215-1.723 7.362-1.754s.24-.115.083-.387l-9.131-15.762c-.083-.142-.059-.19-.284-.178-.2.011-5.279.464-6.455.562a7.039 7.039 0 00-.065.75c1.194 2.443 8.044 16.57 8.082 16.685s.042.168.408.084z" fill="#f35045"/><path fill="none" stroke="#1e223b" stroke-linecap="round" stroke-linejoin="round" stroke-width="2" opacity=".32" d="M474.5 411.737h94m-94 8h60"/><path fill="none" stroke="#1e223b" stroke-linecap="round" stroke-linejoin="round" stroke-width="2" opacity=".15" d="M446.5 458.737h94"/><path fill="none" stroke="#1e223b" stroke-linecap="round" stroke-linejoin="round" stroke-width="2" opacity=".32" d="M446.5 467.404h60m-12 8.667h35"/><path fill="none" stroke="#1e223b" stroke-linecap="round" stroke-linejoin="round" stroke-width="2" opacity=".26" d="M446.5 476.071h42"/><path fill="none" stroke="#1e223b" stroke-linecap="round" stroke-linejoin="round" stroke-width="2" opacity=".15" d="M446.5 484.737h36"/><path d="M450.5 501.071a4 4 0 000 8h80.667v-8z" fill="#4ad3a5" stroke="#1e223b" stroke-miterlimit="10"/><rect x="446.5" y="501.071" width="134" height="8" rx="4" fill="none" stroke="#1e223b" stroke-linecap="round" stroke-linejoin="round"/><rect x="371.5" y="605.737" width="278" height="13" rx="2.25" fill="#263c72"/><path fill="none" stroke="#1e223b" stroke-linecap="round" stroke-linejoin="round" stroke-width="2" d="M371.5 605.737h278v13h-278z"/><rect x="627.5" y="637.737" width="22" height="12" rx="3" fill="#363d56"/><rect x="595.5" y="637.737" width="22" height="12" rx="3" fill="#363d56"/><rect x="563.5" y="637.737" width="22" height="12" rx="3" fill="#363d56"/><rect x="531.5" y="637.737" width="22" height="12" rx="3" fill="#363d56"/><rect x="499.5" y="637.737" width="22" height="12" rx="3" fill="#363d56"/><rect x="467.5" y="637.737" width="22" height="12" rx="3" fill="#363d56"/><rect x="435.5" y="637.737" width="22" height="12" rx="3" fill="#363d56"/><rect x="403.5" y="637.737" width="22" height="12" rx="3" fill="#363d56"/><rect x="371.5" y="637.737" width="22" height="12" rx="3" fill="#363d56"/><rect x="563.5" y="663.214" width="22" height="22" rx="3" fill="#363d56"/><rect x="531.5" y="663.214" width="22" height="22" rx="3" fill="#363d56"/><rect x="499.5" y="663.214" width="22" height="22" rx="3" fill="#363d56"/><rect x="467.5" y="663.214" width="22" height="22" rx="3" fill="#363d56"/><rect x="435.5" y="663.214" width="22" height="22" rx="3" fill="#363d56"/><rect x="403.5" y="663.214" width="22" height="22" rx="3" fill="#363d56"/><rect x="371.5" y="663.214" width="22" height="22" rx="3" fill="#363d56"/><rect x="627.5" y="663.214" width="22" height="53.512" rx="3" fill="#363d56"/><path d="M614.5 663.214h-16a3 3 0 00-3 3v25.512a3 3 0 01-3 3h-26a3 3 0 00-3 3v16a3 3 0 003 3h48a3 3 0 003-3v-47.512a3 3 0 00-3-3z" fill="#363d56"/><rect x="531.5" y="694.726" width="22" height="22" rx="3" fill="#363d56"/><rect x="499.5" y="694.726" width="22" height="22" rx="3" fill="#363d56"/><rect x="467.5" y="694.726" width="22" height="22" rx="3" fill="#363d56"/><rect x="435.5" y="694.726" width="22" height="22" rx="3" fill="#363d56"/><rect x="371.5" y="694.726" width="54" height="22" rx="3" fill="#363d56"/><rect x="627.5" y="726.237" width="22" height="22" rx="3" fill="#363d56"/><rect x="595.5" y="726.237" width="22" height="22" rx="3" fill="#363d56"/><rect x="563.5" y="726.237" width="22" height="22" rx="3" fill="#363d56"/><rect x="467.5" y="726.237" width="86" height="22" rx="3" fill="#363d56"/><rect x="435.5" y="726.237" width="22" height="22" rx="3" fill="#363d56"/><rect x="403.5" y="726.237" width="22" height="22" rx="3" fill="#363d56"/><rect x="371.5" y="726.237" width="22" height="22" rx="3" fill="#363d56"/><rect x="627.5" y="637.737" width="22" height="12" rx="3" fill="none" stroke="#1e223b" stroke-linecap="round" stroke-linejoin="round" stroke-width="2"/><rect x="595.5" y="637.737" width="22" height="12" rx="3" fill="none" stroke="#1e223b" stroke-linecap="round" stroke-linejoin="round" stroke-width="2"/><rect x="563.5" y="637.737" width="22" height="12" rx="3" fill="none" stroke="#1e223b" stroke-linecap="round" stroke-linejoin="round" stroke-width="2"/><rect x="531.5" y="637.737" width="22" height="12" rx="3" fill="none" stroke="#1e223b" stroke-linecap="round" stroke-linejoin="round" stroke-width="2"/><rect x="499.5" y="637.737" width="22" height="12" rx="3" fill="none" stroke="#1e223b" stroke-linecap="round" stroke-linejoin="round" stroke-width="2"/><rect x="467.5" y="637.737" width="22" height="12" rx="3" fill="none" stroke="#1e223b" stroke-linecap="round" stroke-linejoin="round" stroke-width="2"/><rect x="435.5" y="637.737" width="22" height="12" rx="3" fill="none" stroke="#1e223b" stroke-linecap="round" stroke-linejoin="round" stroke-width="2"/><rect x="403.5" y="637.737" width="22" height="12" rx="3" fill="none" stroke="#1e223b" stroke-linecap="round" stroke-linejoin="round" stroke-width="2"/><rect x="371.5" y="637.737" width="22" height="12" rx="3" fill="none" stroke="#1e223b" stroke-linecap="round" stroke-linejoin="round" stroke-width="2"/><rect x="563.5" y="663.214" width="22" height="22" rx="3" fill="none" stroke="#1e223b" stroke-linecap="round" stroke-linejoin="round" stroke-width="2"/><rect x="531.5" y="663.214" width="22" height="22" rx="3" fill="none" stroke="#1e223b" stroke-linecap="round" stroke-linejoin="round" stroke-width="2"/><rect x="499.5" y="663.214" width="22" height="22" rx="3" fill="none" stroke="#1e223b" stroke-linecap="round" stroke-linejoin="round" stroke-width="2"/><rect x="467.5" y="663.214" width="22" height="22" rx="3" fill="none" stroke="#1e223b" stroke-linecap="round" stroke-linejoin="round" stroke-width="2"/><rect x="435.5" y="663.214" width="22" height="22" rx="3" fill="none" stroke="#1e223b" stroke-linecap="round" stroke-linejoin="round" stroke-width="2"/><rect x="403.5" y="663.214" width="22" height="22" rx="3" fill="none" stroke="#1e223b" stroke-linecap="round" stroke-linejoin="round" stroke-width="2"/><rect x="371.5" y="663.214" width="22" height="22" rx="3" fill="none" stroke="#1e223b" stroke-linecap="round" stroke-linejoin="round" stroke-width="2"/><rect x="627.5" y="663.214" width="22" height="53.512" rx="3" fill="none" stroke="#1e223b" stroke-linecap="round" stroke-linejoin="round" stroke-width="2"/><path d="M614.5 663.214h-16a3 3 0 00-3 3v25.512a3 3 0 01-3 3h-26a3 3 0 00-3 3v16a3 3 0 003 3h48a3 3 0 003-3v-47.512a3 3 0 00-3-3z" fill="none" stroke="#1e223b" stroke-linecap="round" stroke-linejoin="round" stroke-width="2"/><rect x="531.5" y="694.726" width="22" height="22" rx="3" fill="none" stroke="#1e223b" stroke-linecap="round" stroke-linejoin="round" stroke-width="2"/><rect x="499.5" y="694.726" width="22" height="22" rx="3" fill="none" stroke="#1e223b" stroke-linecap="round" stroke-linejoin="round" stroke-width="2"/><rect x="467.5" y="694.726" width="22" height="22" rx="3" fill="none" stroke="#1e223b" stroke-linecap="round" stroke-linejoin="round" stroke-width="2"/><rect x="435.5" y="694.726" width="22" height="22" rx="3" fill="none" stroke="#1e223b" stroke-linecap="round" stroke-linejoin="round" stroke-width="2"/><rect x="371.5" y="694.726" width="54" height="22" rx="3" fill="none" stroke="#1e223b" stroke-linecap="round" stroke-linejoin="round" stroke-width="2"/><rect x="627.5" y="726.237" width="22" height="22" rx="3" fill="none" stroke="#1e223b" stroke-linecap="round" stroke-linejoin="round" stroke-width="2"/><rect x="595.5" y="726.237" width="22" height="22" rx="3" fill="none" stroke="#1e223b" stroke-linecap="round" stroke-linejoin="round" stroke-width="2"/><rect x="563.5" y="726.237" width="22" height="22" rx="3" fill="none" stroke="#1e223b" stroke-linecap="round" stroke-linejoin="round" stroke-width="2"/><rect x="467.5" y="726.237" width="86" height="22" rx="3" fill="none" stroke="#1e223b" stroke-linecap="round" stroke-linejoin="round" stroke-width="2"/><rect x="435.5" y="726.237" width="22" height="22" rx="3" fill="none" stroke="#1e223b" stroke-linecap="round" stroke-linejoin="round" stroke-width="2"/><rect x="403.5" y="726.237" width="22" height="22" rx="3" fill="none" stroke="#1e223b" stroke-linecap="round" stroke-linejoin="round" stroke-width="2"/><rect x="371.5" y="726.237" width="22" height="22" rx="3" fill="none" stroke="#1e223b" stroke-linecap="round" stroke-linejoin="round" stroke-width="2"/><path fill="#f2a197" d="M392.644 819.604h44v40h-44z"/><path fill="none" stroke="#1e223b" stroke-linecap="round" stroke-linejoin="round" stroke-width="2" d="M392.644 819.604h44v40h-44z"/><path fill="#fff" d="M388.115 850.604h51.898v25.514h-51.898z"/><path fill="none" stroke="#1e223b" stroke-linecap="round" stroke-linejoin="round" stroke-width="2" d="M388.115 850.604h51.898v25.514h-51.898z"/><path d="M386.172 875.47h55.784a6.487 6.487 0 016.487 6.487v116.757h-68.758V881.956a6.487 6.487 0 016.487-6.486z" fill="#1e223b"/><path d="M386.172 875.47h55.784a6.487 6.487 0 016.487 6.487v116.757h0-68.758 0V881.956a6.487 6.487 0 016.487-6.486z" fill="none" stroke="#1e223b" stroke-linecap="round" stroke-linejoin="round" stroke-width="2"/><circle cx="430.744" cy="863.361" r="4.973" fill="#1e223b" opacity=".2"/><circle cx="430.744" cy="863.361" r="4.973" fill="none" stroke="#1e223b" stroke-linecap="round" stroke-linejoin="round" stroke-width="2"/><path d="M468.637 767.76l1.3.75a6 6 0 012.195 8.195l-25.5 44.168-11.69-6.75 25.5-44.168a6 6 0 018.195-2.196z" fill="#f2a197"/><path d="M468.637 767.76l1.3.75a6 6 0 012.195 8.195l-25.5 44.168h0l-11.69-6.75h0l25.5-44.168a6 6 0 018.195-2.196z" fill="none" stroke="#1e223b" stroke-linecap="round" stroke-linejoin="round" stroke-width="2"/><path d="M444.065 705.455h-1.5a6 6 0 00-6 6v45a3 3 0 01-3 3 3 3 0 01-3-3v-53.7a6 6 0 00-6-6h-1.5a6 6 0 00-6 6v53.7a3 3 0 01-3 3 3 3 0 01-3-3v-45a6 6 0 00-6-6h-1.5a6 6 0 00-6 6v45a3 3 0 01-3 3 3 3 0 01-3-3v-30.75a6 6 0 00-6-6h-1.5a6 6 0 00-6 6v88.245a12 12 0 0012 12h48a12 12 0 0012-12V711.456a6 6 0 00-6-6.001z" fill="#fdb3a6"/><path d="M444.065 705.455h-1.5a6 6 0 00-6 6v45a3 3 0 01-3 3h0a3 3 0 01-3-3v-53.7a6 6 0 00-6-6h-1.5a6 6 0 00-6 6v53.7a3 3 0 01-3 3h0a3 3 0 01-3-3v-45a6 6 0 00-6-6h-1.5a6 6 0 00-6 6v45a3 3 0 01-3 3h0a3 3 0 01-3-3v-30.75a6 6 0 00-6-6h-1.5a6 6 0 00-6 6v88.245a12 12 0 0012 12h48a12 12 0 0012-12V711.456a6 6 0 00-6-6.001z" fill="none" stroke="#1e223b" stroke-linecap="round" stroke-linejoin="round" stroke-width="2"/><path fill="#f2a197" d="M501.002 907.886h44v40h-44z"/><path fill="none" stroke="#1e223b" stroke-linecap="round" stroke-linejoin="round" stroke-width="2" d="M501.002 907.886h44v40h-44z"/><path d="M500.993 902.405l-11.692 6.75-25.5-44.168a6 6 0 012.197-8.196l1.299-.75a6 6 0 018.196 2.196l25.5 44.168z" fill="#f2a197"/><path d="M500.993 902.405l-11.692 6.75h0l-25.5-44.168a6 6 0 012.197-8.196l1.299-.75a6 6 0 018.196 2.196l25.5 44.168h0z" fill="none" stroke="#1e223b" stroke-linecap="round" stroke-linejoin="round" stroke-width="2"/><path d="M493 793.737h1.5a6 6 0 016 6v45a3 3 0 003 3 3 3 0 003-3v-7.172a6 6 0 016-6h1.5a6 6 0 016 6v7.172a3 3 0 003 3 3 3 0 003-3v-7.172a6 6 0 016-6h1.5a6 6 0 016 6v7.172a3 3 0 003 3 3 3 0 003-3v-7.172a6 6 0 016-6h1.5a6 6 0 016 6v64.667a12 12 0 01-12 12h-48a12 12 0 01-12-12V799.738a6 6 0 016-6.001z" fill="#fdb3a6"/><path d="M493 793.737h1.5a6 6 0 016 6v45a3 3 0 003 3h0a3 3 0 003-3v-7.172a6 6 0 016-6h1.5a6 6 0 016 6v7.172a3 3 0 003 3h0a3 3 0 003-3v-7.172a6 6 0 016-6h1.5a6 6 0 016 6v7.172a3 3 0 003 3h0a3 3 0 003-3v-7.172a6 6 0 016-6h1.5a6 6 0 016 6v64.667a12 12 0 01-12 12h-48a12 12 0 01-12-12V799.738a6 6 0 016-6.001z" fill="none" stroke="#1e223b" stroke-linecap="round" stroke-linejoin="round" stroke-width="2"/><path fill="#fff" d="M497.053 938.886h51.898V964.4h-51.898z"/><path fill="none" stroke="#1e223b" stroke-linecap="round" stroke-linejoin="round" stroke-width="2" d="M497.053 938.886h51.898V964.4h-51.898z"/><path d="M495.11 963.752h55.784a6.487 6.487 0 016.487 6.487v30.261h-68.757v-30.262a6.487 6.487 0 016.486-6.486z" fill="#1e223b"/><path d="M495.11 963.752h55.784a6.487 6.487 0 016.487 6.487v30.261h0-68.757 0v-30.262a6.487 6.487 0 016.486-6.486z" fill="none" stroke="#1e223b" stroke-linecap="round" stroke-linejoin="round" stroke-width="2"/><circle cx="508.029" cy="951.643" r="4.973" fill="none" stroke="#1e223b" stroke-linecap="round" stroke-linejoin="round" stroke-width="2"/><circle cx="508.029" cy="951.643" r="4.973" fill="#1e223b" opacity=".2"/><path fill="none" stroke="#1e223b" stroke-linecap="round" stroke-linejoin="round" stroke-width="3" d="M525 205h54m-54 13.5h42M525 232h24m48.213-83.5h27m-27 7h17"/><path fill="none" stroke="#1e223b" stroke-linecap="round" stroke-linejoin="round" stroke-width="2" d="M596.584 219.629h3"/><path d="M607.522 219.629h22.214a39.764 39.764 0 0139.764 39.764h0a39.764 39.764 0 01-39.764 39.764h-65.564a44.671 44.671 0 00-44.672 44.671v4.94" fill="none" stroke="#1e223b" stroke-linecap="round" stroke-linejoin="round" stroke-width="2" stroke-dasharray="5.95365047454834,7.9382004737854"/><path fill="none" stroke="#1e223b" stroke-linecap="round" stroke-linejoin="round" stroke-width="2" d="M519.5 352.737v3"/><path fill="none" stroke="#1e223b" stroke-linecap="round" stroke-linejoin="round" stroke-width="2" stroke-dasharray="6,8" d="M224.357 467.84h125.542"/><path d="M221.137 694.726h26.25a45.113 45.113 0 0045.113-45.113v-18.994a44.882 44.882 0 0144.881-44.882H351.5" fill="none" stroke="#1e223b" stroke-linecap="round" stroke-linejoin="round" stroke-width="2"/><path d="M354.292 222.858h13.556a35.653 35.653 0 0135.652 35.653h0a35.652 35.652 0 0035.653 35.652h19.695a35.653 35.653 0 0135.652 35.653v25.921" fill="none" stroke="#1e223b" stroke-linecap="round" stroke-linejoin="round" stroke-width="2" stroke-dasharray="6,8"/><path d="M669.5 460.732h52.532a34.764 34.764 0 0034.768-34.764v-92.046" fill="none" stroke="#1e223b" stroke-linecap="round" stroke-linejoin="round" stroke-width="2"/><circle cx="887.156" cy="734.737" r="30.51" fill="none" stroke="#1e223b" stroke-linecap="round" stroke-linejoin="round" stroke-width="2"/><path fill="none" stroke="#1e223b" stroke-linecap="round" stroke-linejoin="round" stroke-width="2" stroke-dasharray="6,8" d="M669.5 521.419h188.25"/><circle cx="859.373" cy="752.113" r="35.387" fill="#fff"/><circle cx="859.373" cy="752.113" r="35.387" fill="none" stroke="#1e223b" stroke-linecap="round" stroke-linejoin="round" stroke-width="2"/><path fill="none" stroke="#1e223b" stroke-linecap="round" stroke-linejoin="round" stroke-width="2" stroke-dasharray="6,8" d="M823.986 752.113H669.5"/><circle cx="677" cy="143" r="7.5" fill="#fff" opacity=".39"/><circle cx="677" cy="143" r="7.5" fill="none" stroke="#1e223b" stroke-linecap="round" stroke-linejoin="round" stroke-width="2"/><path fill="none" stroke="#1e223b" stroke-linecap="round" stroke-linejoin="round" stroke-width="2" d="M844.256 784.114l15.117-32.001 34.982 5.369"/><rect x="769.033" y="683.121" width="88.078" height="45.209" rx="9.042" fill="#f73e59"/><rect x="769.033" y="683.121" width="88.078" height="45.209" rx="9.042" fill="none" stroke="#1e223b" stroke-linecap="round" stroke-linejoin="round" stroke-width="2"/><path d="M780.455 713.631l2.135-2.942a9.269 9.269 0 006.825 3.007c3.1 0 4.3-1.52 4.3-2.975 0-4.528-12.548-1.714-12.548-9.638 0-3.59 3.1-6.34 7.859-6.34a11.174 11.174 0 018.054 3.04l-2.135 2.814a8.8 8.8 0 00-6.275-2.489c-2.2 0-3.622 1.1-3.622 2.684 0 4.042 12.55 1.552 12.55 9.573 0 3.59-2.556 6.694-8.345 6.694a11.8 11.8 0 01-8.798-3.428zm22.091-7.731c0-6.435 4.561-11.158 11.03-11.158 6.435 0 11.028 4.723 11.028 11.158a11.3 11.3 0 01-2.879 7.764l1.779 2-2.619 2.2-1.876-2.1a11.526 11.526 0 01-5.433 1.293c-6.469.002-11.03-4.719-11.03-11.157zm14.069 7.149l-2.684-3.041 2.652-2.2 2.684 3.039a8.515 8.515 0 001.456-4.949c0-4.462-2.814-7.793-7.147-7.793-4.367 0-7.149 3.331-7.149 7.793 0 4.432 2.782 7.8 7.149 7.8a7.125 7.125 0 003.039-.648zm13.785 3.623V695.1h3.784v18.242h9.508v3.331z" fill="#fff"/><rect x="152.918" y="242.869" width="128.255" height="52.201" rx="10.79" fill="#e44d26" stroke="#1e223b" stroke-miterlimit="10" stroke-width="2"/><rect x="152.918" y="242.869" width="128.255" height="52.201" rx="10.79" fill="none" stroke="#1e223b" stroke-linecap="round" stroke-linejoin="round" stroke-width="2"/></svg>