<svg version="1.1" id="gaming-mouse_svg__Layer_1" xmlns="http://www.w3.org/2000/svg" x="0" y="0" viewBox="242.2 0 391.1 758" xml:space="preserve"><style>.gaming-mouse_svg__st1{fill:#eef2f4}.gaming-mouse_svg__st3{fill:#579aa3}.gaming-mouse_svg__st5{fill:#2f3140}.gaming-mouse_svg__st7{fill:#7c7c94}.gaming-mouse_svg__st8{fill:none;stroke:#2f3140;stroke-width:3;stroke-linecap:round;stroke-linejoin:round;stroke-miterlimit:10}.gaming-mouse_svg__st9{fill:#6c6d81}.gaming-mouse_svg__st11,.gaming-mouse_svg__st13{fill:none;stroke:#c06d4f;stroke-width:2;stroke-linecap:round;stroke-linejoin:round;stroke-miterlimit:10}.gaming-mouse_svg__st13{stroke:#2f3140;stroke-width:6}.gaming-mouse_svg__st15{fill:#3c4155}</style><path class="gaming-mouse_svg__st1" d="M57.2 953.3c-3.6 0-6.2 2.8-6.2 6.2 0 3.6 2.8 6.2 6.5 6.2 1.2 0 2.1-.2 2.9-.4v-.6c-.8.3-1.7.4-2.9.4-3.4 0-5.9-2.4-5.9-5.7 0-3.2 2.5-5.7 5.6-5.7 3.1 0 5.4 2.3 5.4 5.3 0 2.1-.8 3-1.7 3-.8 0-1-.6-1-1.4v-3.9h-1.6v.5c-.4-.4-1-.7-1.6-.7-1.5 0-2.6 1.2-2.6 2.8 0 1.6 1.1 2.8 2.6 2.8.7 0 1.4-.3 1.8-.8.3.9 1.1 1.4 2.1 1.4 1.4 0 2.6-1.1 2.6-3.7s-2.1-5.7-6-5.7zm-.2 7.6c-.8 0-1.3-.5-1.3-1.3s.6-1.4 1.3-1.4c.7 0 1.3.5 1.3 1.4 0 .7-.5 1.3-1.3 1.3zm9.8-4.2v-1.4h-1.9v8.6h1.9v-4.3c0-1.9 1.4-2.5 2.6-2.4v-2c-1.1-.1-2.1.3-2.6 1.5zm7.6-1.7c-2.7 0-4.5 2-4.5 4.5 0 2.6 1.8 4.5 4.7 4.5 1.7 0 3-.7 3.8-1.9l-1.5-.9c-.4.6-1.2 1.1-2.2 1.1-1.4 0-2.5-.7-2.7-2h6.8c0-.2.1-.5.1-.8-.2-2.4-1.9-4.5-4.5-4.5zm-2.6 3.8c.3-1.3 1.2-2.1 2.6-2.1 1.1 0 2.2.6 2.5 2.1h-5.1zm15.3-2.3c-.7-.9-1.7-1.4-3-1.4-2.3 0-4.3 2-4.3 4.5s1.9 4.5 4.3 4.5c1.3 0 2.3-.5 3-1.5v1.2H89v-8.6h-1.9v1.3zm-2.7 5.8c-1.5 0-2.7-1.1-2.7-2.7s1.2-2.7 2.7-2.7c1.5 0 2.7 1.1 2.7 2.7 0 1.5-1.2 2.7-2.7 2.7zm6.7-11H93v12.5h-1.9zm9.8 3.9l-2.4 6.6-2.4-6.6h-2l3.3 8.6h2.2l3.3-8.6zm4.3-3.6c-.7 0-1.2.5-1.2 1.2 0 .6.5 1.2 1.2 1.2s1.2-.5 1.2-1.2-.6-1.2-1.2-1.2zm-1 12.6c0 1.2-.5 1.6-1.7 1.5v1.8c2.3.2 3.5-.9 3.5-3.3v-8.9h-1.9v8.9zm7.6-2.7l-2.6-6.2h-2l3.6 8.4-.1.2c-.4 1.1-1.1 1.7-2.3 1.7v1.7c2 .1 3.4-1 4.2-3.2l3.3-8.8h-2l-2.1 6.2zm100.1-22.8c0-2.1-1.5-3.8-3.6-3.8h-3v7.6h3c2.1 0 3.6-1.7 3.6-3.8zm-5.6-2.9h2c1.6 0 2.6 1.2 2.6 2.9s-1.1 2.9-2.6 2.9h-2v-5.8zm9.8 5h3.4l.6 1.7h1.1l-2.8-7.6h-1.1l-2.8 7.6h1.1l.5-1.7zm1.7-4.7l1.4 3.8h-2.7l1.3-3.8zm8.1 2.4l-2.1-3.6h-1.1l2.7 4.5v3.1h1v-3.1l2.7-4.5H228zm14 4.2c1.9 0 2.9-1.6 2.9-4s-1-4-2.9-4-2.9 1.6-2.9 4c0 2.3 1.1 4 2.9 4zm0-7c1.2 0 1.9 1.1 1.9 3s-.7 3-1.9 3-1.9-1.1-1.9-3 .7-3 1.9-3zm10.9 4.6c0-1.3-.9-2-2-2.2l1.7-2.2v-.9h-4.6v.9h3.4l-1.8 2.4.4.6h.3c.9 0 1.6.5 1.6 1.4 0 .9-.7 1.4-1.6 1.4-.8 0-1.4-.3-1.7-1.1l-.9.5c.4 1 1.4 1.5 2.5 1.5 1.5.1 2.7-.8 2.7-2.3zm590.5-3.7l2.5 4.1h.1l2.5-4.1v5.9h1v-7.6h-1.1l-2.4 4-2.5-4h-1.1v7.6h1zm13.6-1.9c-2.2 0-3.9 1.8-3.9 4s1.7 4 3.9 4 4-1.8 4-4c-.1-2.2-1.8-4-4-4zm0 7c-1.7 0-2.9-1.3-2.9-3s1.3-3 2.9-3c1.7 0 2.9 1.3 2.9 3s-1.2 3-2.9 3zm12.9-4.5c0-1.3-1.1-2.4-2.4-2.4h-3v7.6h1v-2.9h1.8l1.7 2.9h1.1l-1.8-3.1c.9-.2 1.6-1.1 1.6-2.1zm-4.4 1.5v-2.8h2c.8 0 1.4.6 1.4 1.4 0 .8-.6 1.4-1.4 1.4h-2zm12.5 2.9h-3.6v-2.5h3.2v-.9h-3.2v-2.4h3.5v-.9h-4.5v7.6h4.6zm-817-2.9c0-2.1-1.5-3.8-3.6-3.8h-3v7.6h3c2.1 0 3.6-1.7 3.6-3.8zm-5.6-2.9h2c1.6 0 2.6 1.2 2.6 2.9s-1.1 2.9-2.6 2.9h-2v-5.8zm13.7 5.8h-3.6v-2.5h3.2v-.9h-3.2v-2.4h3.5v-.9h-4.5v7.6H67zm6 .1c-1.1 0-1.8-.5-2-1.4l-.9.5c.4 1.1 1.4 1.9 2.9 1.9 1.6 0 2.6-.8 2.6-2.2 0-1.5-1.3-1.9-2.6-2.3-1.1-.3-1.6-.6-1.6-1.3 0-.7.6-1.1 1.4-1.1.9 0 1.5.5 1.7 1.2l.8-.5c-.4-1-1.3-1.7-2.6-1.7s-2.4.8-2.4 2.2c0 1.4 1.2 1.8 2.4 2.2 1.1.3 1.8.6 1.8 1.4.1.6-.5 1.1-1.5 1.1zm6-6.8h1v7.6h-1zm12.3 3.8h-3.8v.9h2.8c-.2 1.1-1.1 2-2.7 2-1.8 0-3-1.3-3-3s1.2-3 3-3c1.1 0 2 .6 2.4 1.4l.9-.5c-.6-1.1-1.9-1.8-3.3-1.8-2.3 0-4 1.8-4 4s1.7 4 4 4 3.7-1.5 3.7-3.5v-.5zm4.5-1.9l4 5.7h.8v-7.6h-1v5.7l-4-5.7h-.8v7.6h1zm13.3 4.8h-3.6v-2.5h3.2v-.9h-3.2v-2.4h3.5v-.9h-4.5v7.6h4.6zm6.4-6.7h-3v7.6h3c2.1 0 3.6-1.7 3.6-3.8.1-2.1-1.5-3.8-3.6-3.8zm0 6.7h-2v-5.7h2c1.6 0 2.6 1.2 2.6 2.9s-1 2.8-2.6 2.8zm16.6-3c.5-.3.8-.9.8-1.6 0-1.2-.9-2.1-2.1-2.1h-3v7.6h3.3c1.2 0 2.2-.9 2.2-2.2-.1-.8-.6-1.4-1.2-1.7zm-3.4-2.8h2c.6 0 1.1.5 1.1 1.2s-.5 1.2-1.1 1.2h-2v-2.4zm2.3 5.8h-2.3v-2.5h2.3c.7 0 1.2.5 1.2 1.2s-.5 1.3-1.2 1.3zm7.9-3.1l-2.1-3.6h-1.2l2.7 4.5v3.1h1.1v-3.1l2.7-4.5h-1.2zm72.4 21.2h4.1c-.4 1.7-1.8 2.8-4 2.8-2.8 0-4.6-1.9-4.6-4.4 0-2.5 1.8-4.5 4.5-4.5 1.6 0 3 .8 3.6 2l1.8-1c-1-1.8-3-2.9-5.4-2.9-3.7 0-6.5 2.9-6.5 6.4s2.7 6.4 6.6 6.4c3.6 0 6.1-2.4 6.1-5.8v-.8h-6.2v1.8zm15-3c-.7-.9-1.7-1.5-3.1-1.5-2.4 0-4.4 2-4.4 4.7 0 2.6 2 4.7 4.4 4.7 1.4 0 2.4-.6 3.1-1.5v1.3h1.9v-8.9h-1.9v1.2zm-2.8 6c-1.6 0-2.8-1.2-2.8-2.8 0-1.6 1.2-2.8 2.8-2.8 1.6 0 2.8 1.2 2.8 2.8 0 1.6-1.2 2.8-2.8 2.8zm16.6-7.5c-1.2 0-2.1.5-2.7 1.4-.5-.9-1.4-1.4-2.5-1.4s-2 .4-2.5 1.3v-1.1h-1.9v8.9h1.9v-5c0-1.6.9-2.3 2-2.3 1 0 1.7.7 1.7 1.9v5.4h1.9v-5c0-1.6.8-2.3 1.9-2.3 1 0 1.7.7 1.7 1.9v5.4h1.9v-5.5c-.1-2.2-1.4-3.6-3.4-3.6zm5.4.2h1.9v8.9h-1.9zm.9-3.7c-.7 0-1.2.5-1.2 1.2s.5 1.2 1.2 1.2 1.2-.6 1.2-1.2c0-.7-.5-1.2-1.2-1.2zm7.9 3.5c-1.2 0-2.2.4-2.7 1.4v-1.1h-1.9v8.9h1.9v-4.7c0-1.8 1-2.5 2.2-2.5 1.2 0 2 .7 2 2.1v5.2h1.9v-5.4c0-2.5-1.5-3.9-3.4-3.9zm12.5 1.6c-.7-1-1.7-1.5-3.1-1.5-2.5 0-4.5 2-4.5 4.6s2 4.6 4.5 4.6c1.4 0 2.4-.6 3.1-1.5v1.1c0 1.5-1 2.4-2.6 2.4-1.5 0-2.2-.6-2.6-1.4l-1.6 1c.7 1.4 2.2 2.1 4.2 2.1 2.3 0 4.5-1.3 4.5-4.2v-8.4h-1.9v1.2zm-2.9 5.8c-1.6 0-2.8-1.2-2.8-2.8s1.2-2.8 2.8-2.8c1.6 0 2.8 1.2 2.8 2.8s-1.2 2.8-2.8 2.8zm17.4-4.5l-3.7-6.2h-2.2v12.4h2v-8.9l3.8 6.3h.3l3.7-6.2v8.8h2.1v-12.4h-2.2zm12.5-2.9c-2.6 0-4.7 2-4.7 4.7 0 2.6 2.1 4.7 4.7 4.7s4.7-2 4.7-4.7-2.1-4.7-4.7-4.7zm0 7.5c-1.6 0-2.8-1.2-2.8-2.8 0-1.6 1.2-2.8 2.8-2.8s2.8 1.2 2.8 2.8c0 1.6-1.2 2.8-2.8 2.8zm12.4-2.5c0 1.8-1 2.5-2.2 2.5-1.2 0-2-.7-2-2.1v-5.2h-2v5.4c0 2.3 1.4 3.6 3.4 3.6 1.2 0 2.2-.4 2.7-1.4v1.1h1.9v-8.9h-1.9v5zm5.8-2.3c0-.6.6-.9 1.3-.9.7 0 1.3.3 1.7 1l1.6-.9c-.6-1.2-1.8-1.8-3.3-1.8-1.8 0-3.2 1-3.2 2.7 0 3.2 4.8 2.3 4.8 3.9 0 .7-.7 1-1.5 1-1 0-1.7-.5-2-1.3l-1.6 1c.6 1.3 1.8 2.1 3.6 2.1 1.9 0 3.5-1 3.5-2.7-.1-3.5-4.9-2.5-4.9-4.1zm10.4-2.7c-2.8 0-4.7 2-4.7 4.7s1.9 4.7 4.8 4.7c1.7 0 3.1-.7 3.9-1.9l-1.6-.9c-.4.6-1.2 1.1-2.3 1.1-1.4 0-2.5-.7-2.8-2.1h7c0-.2.1-.5.1-.8 0-2.7-1.8-4.8-4.4-4.8zm-2.7 3.9c.3-1.3 1.2-2.2 2.7-2.2 1.2 0 2.3.7 2.5 2.2h-5.2zm524.5 3.1l-2.4-6.8h-2.1l3.4 8.9h2.2l3.5-8.9h-2.1zm5.8-6.8h1.9v8.9H850zm1-3.7c-.7 0-1.2.5-1.2 1.2s.5 1.2 1.2 1.2 1.2-.6 1.2-1.2c0-.7-.6-1.2-1.2-1.2zm3.3 13c0 1.2-.5 1.7-1.7 1.6v1.8c2.4.2 3.6-1 3.6-3.4v-9.2h-1.9v9.2zm.9-13c-.7 0-1.2.5-1.2 1.2s.5 1.2 1.2 1.2 1.2-.6 1.2-1.2c.1-.7-.5-1.2-1.2-1.2zm10.2 5c-.7-.9-1.7-1.5-3.1-1.5-2.4 0-4.4 2-4.4 4.7 0 2.6 2 4.7 4.4 4.7 1.4 0 2.4-.6 3.1-1.5v1.3h1.9v-8.9h-1.9v1.2zm-2.8 6c-1.6 0-2.8-1.2-2.8-2.8 0-1.6 1.2-2.8 2.8-2.8 1.6 0 2.8 1.2 2.8 2.8 0 1.6-1.2 2.8-2.8 2.8zm10.7-.8l-2.6-6.4h-2.1l3.8 8.7-.1.2c-.4 1.2-1.1 1.8-2.4 1.7v1.8c2 .1 3.5-1 4.3-3.3l3.4-9.1h-2l-2.3 6.4zm9 .3l-2.4-6.8h-2.1l3.4 8.9h2.2l3.5-8.9h-2.1zm9.6-7c-2.8 0-4.7 2-4.7 4.7s1.9 4.7 4.8 4.7c1.7 0 3.1-.7 3.9-1.9l-1.6-.9c-.4.6-1.2 1.1-2.3 1.1-1.4 0-2.5-.7-2.8-2.1h7c0-.2.1-.5.1-.8.1-2.7-1.8-4.8-4.4-4.8zm-2.7 3.9c.3-1.3 1.2-2.2 2.7-2.2 1.2 0 2.3.7 2.5 2.2h-5.2zm10.7-2.2v-1.5H898v8.9h1.9v-4.5c0-2 1.5-2.6 2.7-2.5v-2.1c-1 .1-2.1.5-2.7 1.7zm13.9-1.7c-1.2 0-2.1.5-2.7 1.4-.5-.9-1.4-1.4-2.5-1.4s-2 .4-2.5 1.3v-1.1h-1.9v8.9h1.9v-5c0-1.6.9-2.3 2-2.3 1 0 1.7.7 1.7 1.9v5.4h1.9v-5c0-1.6.8-2.3 1.9-2.3 1 0 1.7.7 1.7 1.9v5.4h1.9v-5.5c-.1-2.2-1.4-3.6-3.4-3.6zm12.4 1.5c-.7-.9-1.7-1.5-3.1-1.5-2.4 0-4.4 2-4.4 4.7 0 2.6 2 4.7 4.4 4.7 1.4 0 2.4-.6 3.1-1.5v1.3h1.9v-8.9h-1.9v1.2zm-2.8 6c-1.6 0-2.8-1.2-2.8-2.8 0-1.6 1.2-2.8 2.8-2.8 1.6 0 2.8 1.2 2.8 2.8 0 1.6-1.2 2.8-2.8 2.8z"/><circle class="gaming-mouse_svg__st1" cx="931.5" cy="963.2" r="1.3"/><path class="gaming-mouse_svg__st1" d="M938.3 962.6c-1.6 0-2.7-1.2-2.7-2.8 0-1.6 1.2-2.8 2.7-2.8 1.1 0 1.9.5 2.3 1.4l1.6-1c-.7-1.4-2.2-2.3-3.9-2.3-2.7 0-4.7 2-4.7 4.7 0 2.6 2 4.7 4.7 4.7 1.7 0 3.2-.9 4-2.3l-1.6-.9c-.5.8-1.4 1.3-2.4 1.3zm9.4-7.4c-2.6 0-4.7 2-4.7 4.7 0 2.6 2.1 4.7 4.7 4.7s4.7-2 4.7-4.7-2.1-4.7-4.7-4.7zm0 7.5c-1.6 0-2.8-1.2-2.8-2.8 0-1.6 1.2-2.8 2.8-2.8s2.8 1.2 2.8 2.8c0 1.6-1.2 2.8-2.8 2.8z"/><path id="gaming-mouse_svg__XMLID_27_" d="M501 282.6v-58.3c0-16.6-13.4-30-30-30H308c-16.6 0-30-13.4-30-30v0c0-16.6 13.4-30 30-30h286.4c16.6 0 30-13.4 30-30v0c0-16.6-13.4-30-30-30H531c-16.6 0-30-13.4-30-30V8" fill="none" stroke="#579aa3" stroke-width="6" stroke-miterlimit="10"/><path id="gaming-mouse_svg__XMLID_39_" class="gaming-mouse_svg__st3" d="M510.8 295.6h-21.7c-1.6 0-2.8-1.3-2.8-2.8v-2.5c0-1.6 1.3-2.8 2.8-2.8h21.7c1.6 0 2.8 1.3 2.8 2.8v2.5c.1 1.5-1.2 2.8-2.8 2.8z"/><path id="gaming-mouse_svg__XMLID_38_" class="gaming-mouse_svg__st3" d="M510.4 282.8h-20.8c-1.8 0-3.3-1.5-3.3-3.3v-1.7c0-1.8 1.5-3.3 3.3-3.3h20.8c1.8 0 3.3 1.5 3.3 3.3v1.7c0 1.8-1.5 3.3-3.3 3.3z"/><path id="gaming-mouse_svg__XMLID_37_" class="gaming-mouse_svg__st3" d="M509.9 288.8h-19.8c-1.2 0-2.2-1-2.2-2.2v-2.9c0-1.2 1-2.2 2.2-2.2h19.8c1.2 0 2.3 1 2.3 2.2v2.9c0 1.2-1 2.2-2.3 2.2z"/><path id="gaming-mouse_svg__XMLID_35_" d="M492 274.6v-58.3c0-16.6-13.4-30-30-30H299c-16.6 0-30-13.4-30-30v0c0-16.6 13.4-30 30-30h286.4c16.6 0 30-13.4 30-30v0c0-16.6-13.4-30-30-30H522c-16.6 0-30-13.4-30-30V0" fill="none" stroke="#2f3140" stroke-width="8" stroke-linecap="round" stroke-linejoin="round" stroke-miterlimit="10"/><path id="gaming-mouse_svg__XMLID_26_" class="gaming-mouse_svg__st5" d="M502.8 295.6h-21.7c-1.6 0-2.8-1.3-2.8-2.8v-2.5c0-1.6 1.3-2.8 2.8-2.8h21.7c1.6 0 2.8 1.3 2.8 2.8v2.5c.1 1.5-1.2 2.8-2.8 2.8z"/><path id="gaming-mouse_svg__XMLID_33_" class="gaming-mouse_svg__st5" d="M502.4 282.8h-20.8c-1.8 0-3.3-1.5-3.3-3.3v-1.7c0-1.8 1.5-3.3 3.3-3.3h20.8c1.8 0 3.3 1.5 3.3 3.3v1.7c0 1.8-1.5 3.3-3.3 3.3z"/><path id="gaming-mouse_svg__XMLID_31_" class="gaming-mouse_svg__st5" d="M501.9 288.3h-19.8c-1.2 0-2.2-1-2.2-2.2v-1.9c0-1.2 1-2.2 2.2-2.2h19.8c1.2 0 2.2 1 2.2 2.2v1.9c.1 1.2-.9 2.2-2.2 2.2z"/><path id="gaming-mouse_svg__XMLID_36_" d="M599.8 360.1c-1.5-3.5-3.6-6.7-5.9-9.6-.2-.4-.3-.8-.5-1.2-5.6-14.4-21.8-23.4-21.8-23.4-15.1-9.1-30.4-14.6-44.9-18.3-3.8-1-7.5 1.9-7.5 5.8v17.8h-36v-17.8c0-3.9-3.7-6.8-7.5-5.8-14.6 3.7-29.8 9.2-44.9 18.3 0 0-16.2 8.9-21.8 23.4-5.1 13-12 35-18.3 61.4l-9.3 3c-4.9 21.1-9.3 44.7-12.1 68.5l8.7-2.7c-.9 6.9-1.6 13.9-2.2 20.9l-8.5 2.2c-2.3 29.8-1.5 59 4.6 83.1l9.2 1.4c.1.3.2.7.3 1 31.7 75.9 49.7 120.8 63.4 130 13.5 9.1 40.8 11.3 56.5 10.7 15.5.7 42.4-.8 56.1-9.7h0c1.2-.6 1.8-1.3 2.9-2 14.7-9.2 31.9-45.4 62-112.4l6-13.4.1-.3c22.6-70.9-13.1-194.1-28.6-230.9z" fill="#579aa3" stroke="#579aa3" stroke-width="6" stroke-miterlimit="10"/><path id="gaming-mouse_svg__XMLID_14_" class="gaming-mouse_svg__st7" d="M384 480.3h-11l-15 3.9c-2.3 29.8-1.5 59 4.6 83.1l29.8 4.5-8.4-91.5z"/><path id="gaming-mouse_svg__XMLID_12_" class="gaming-mouse_svg__st8" d="M384 480.3h-11l-15 3.9c-2.3 29.8-1.5 59 4.6 83.1l29.8 4.5-8.4-91.5z"/><path id="gaming-mouse_svg__XMLID_15_" class="gaming-mouse_svg__st7" d="M374.7 459.3l13-69-15.5 5c-4.9 21.1-9.3 44.7-12.1 68.5l14.6-4.5z"/><path id="gaming-mouse_svg__XMLID_24_" class="gaming-mouse_svg__st9" d="M387 480.3h-11l-15 3.9c-2.3 29.8-1.5 59 4.6 83.1l29.8 4.5-8.4-91.5z"/><path id="gaming-mouse_svg__XMLID_20_" class="gaming-mouse_svg__st9" d="M377.7 459.3l13-69-15.5 5c-4.9 21.1-9.3 44.7-12.1 68.5l14.6-4.5z"/><path id="gaming-mouse_svg__XMLID_13_" class="gaming-mouse_svg__st8" d="M374.7 459.3l13-69-15.5 5c-4.9 21.1-9.3 44.7-12.1 68.5l14.6-4.5z"/><path id="gaming-mouse_svg__XMLID_10_" d="M590.6 341.8c-6.3-15-23.3-24.2-25.1-25.1-5.6-3.1-11.4-5.9-17.4-8.4v392.9c1.2-.6 2.5-1.3 3.6-2 14.7-9.2 31.2-46.1 61.4-113l6-13.4.1-.3c22.6-70.7-13.1-193.8-28.6-230.7z" fill="#565864"/><path id="gaming-mouse_svg__XMLID_11_" class="gaming-mouse_svg__st8" d="M590.6 341.8c-6.3-15-23.3-24.2-25.1-25.1-5.6-3.1-11.4-5.9-17.4-8.4v392.9c1.2-.6 2.5-1.3 3.6-2 14.7-9.2 31.2-46.1 61.4-113l6-13.4.1-.3c22.6-70.7-13.1-193.8-28.6-230.7z"/><path id="gaming-mouse_svg__XMLID_7_" d="M584.2 331c-5.6-14.4-21.8-23.4-21.8-23.4-15.1-9.1-30.4-14.6-44.9-18.3-3.8-1-7.5 1.9-7.5 5.8V313h-36v-17.8c0-3.9-3.7-6.8-7.5-5.8-14.6 3.7-29.8 9.2-44.9 18.3 0 0-16.2 8.9-21.8 23.4-15.7 40.1-49 167-27.7 238.7 31.7 75.9 49.7 120.8 63.4 130 13.5 9.1 40.8 11.3 56.5 10.7 15.7.7 43-1.5 56.5-10.7 13.6-9.2 31.7-54.1 63.4-130 21.3-71.8-12-198.7-27.7-238.8z" fill="#51566a"/><path id="gaming-mouse_svg__XMLID_34_" class="gaming-mouse_svg__st9" d="M579.3 390.3c0-26.1-2.2-51.3-6.4-74.9-5.5-5-10.5-7.8-10.5-7.8-15.1-9.1-30.4-14.6-44.9-18.3-3.8-1-7.5 1.9-7.5 5.8V313h-36v-17.8c0-3.9-3.7-6.8-7.5-5.8-14.6 3.7-29.8 9.2-44.9 18.3 0 0-16.2 8.9-21.8 23.4-15.7 40.1-49 167-27.7 238.7 9.3 22.4 17.5 42 24.7 58.8 13.4 7.6 27.6 11.7 42.4 11.7 77.4-.1 140.1-112 140.1-250z"/><path id="gaming-mouse_svg__XMLID_6_" class="gaming-mouse_svg__st13" d="M584.2 331c-5.6-14.4-21.8-23.4-21.8-23.4-15.1-9.1-30.4-14.6-44.9-18.3-3.8-1-7.5 1.9-7.5 5.8V313h-36v-17.8c0-3.9-3.7-6.8-7.5-5.8-14.6 3.7-29.8 9.2-44.9 18.3 0 0-16.2 8.9-21.8 23.4-15.7 40.1-49 167-27.7 238.7 31.7 75.9 49.7 120.8 63.4 130 13.5 9.1 40.8 11.3 56.5 10.7 15.7.7 43-1.5 56.5-10.7 13.6-9.2 31.7-54.1 63.4-130 21.3-71.8-12-198.7-27.7-238.8z"/><path id="gaming-mouse_svg__XMLID_8_" class="gaming-mouse_svg__st13" d="M474 307.1V295c0-3.9-3.6-6.7-7.4-5.8-14.7 3.7-30 9.2-45.2 18.4 0 0-16.4 8.9-22 23.4-9.2 23.4-24.3 76.4-31.1 130.7-.6 4.8 4.4 8.3 8.7 6 14.7-7.9 30.4-16.2 41.2-21.3 24.4-11.6 57.7-21.5 69.4-24.8 2.6-.7 4.3-3.1 4.3-5.7V319c0-3.3-2.7-5.9-5.9-5.9h-6.1c-3.2-.1-5.9-2.7-5.9-6z"/><path id="gaming-mouse_svg__XMLID_9_" class="gaming-mouse_svg__st13" d="M584.2 331c-5.6-14.4-21.8-23.4-21.8-23.4-15.1-9.1-30.4-14.6-44.9-18.3-3.8-1-7.5 1.9-7.5 5.8V313h-18v107.4s43.3 11.6 73.5 26c10.8 5.1 26.5 13.4 41.1 21.3 4.3 2.3 9.3-1.2 8.7-6-6.8-54.3-21.9-107.3-31.1-130.7z"/><path id="gaming-mouse_svg__XMLID_16_" class="gaming-mouse_svg__st7" d="M492 534c-9.9 0-18-8.1-18-18V306c0-5.3 4.3-9.7 9.7-9.7h16.7c5.3 0 9.7 4.3 9.7 9.7v210c-.1 10-8.2 18-18.1 18z"/><path id="gaming-mouse_svg__XMLID_32_" d="M510 352.3V306c0-5.3-4.3-9.7-9.7-9.7h-16.7c-5.3 0-9.7 4.3-9.7 9.7v198.8L510 352.3z" fill="#9093a2"/><path id="gaming-mouse_svg__XMLID_23_" class="gaming-mouse_svg__st15" d="M499.9 468.6v-28.3c0-4.3-3.5-7.9-7.9-7.9s-7.9 3.5-7.9 7.9v28.3h15.8z"/><path id="gaming-mouse_svg__XMLID_22_" class="gaming-mouse_svg__st15" d="M499.9 476.6v28.3c0 4.3-3.5 7.9-7.9 7.9s-7.9-3.5-7.9-7.9v-28.3h15.8z"/><path id="gaming-mouse_svg__XMLID_3_" class="gaming-mouse_svg__st13" d="M492 534c-9.9 0-18-8.1-18-18V306.1c0-5.4 4.4-9.8 9.8-9.8h16.5c5.4 0 9.8 4.4 9.8 9.8V516c-.1 10-8.2 18-18.1 18z"/><path id="gaming-mouse_svg__XMLID_5_" d="M495.2 402.3h-6.5c-3.7 0-6.7-3-6.7-6.7v-44.5c0-3.7 3-6.7 6.7-6.7h6.5c3.7 0 6.7 3 6.7 6.7v44.5c.1 3.7-3 6.7-6.7 6.7z" fill="#3b4254"/><g id="gaming-mouse_svg__XMLID_18_"><g id="gaming-mouse_svg__XMLID_79_"><path id="gaming-mouse_svg__XMLID_80_" class="gaming-mouse_svg__st11" d="M483.1 396.5h17.8"/></g><g id="gaming-mouse_svg__XMLID_76_"><path id="gaming-mouse_svg__XMLID_77_" class="gaming-mouse_svg__st11" d="M483.1 390.5h17.8"/></g><g id="gaming-mouse_svg__XMLID_73_"><path id="gaming-mouse_svg__XMLID_74_" class="gaming-mouse_svg__st11" d="M483.1 384.5h17.8"/></g><g id="gaming-mouse_svg__XMLID_70_"><path id="gaming-mouse_svg__XMLID_71_" class="gaming-mouse_svg__st11" d="M483.1 378.5h17.8"/></g><g id="gaming-mouse_svg__XMLID_67_"><path id="gaming-mouse_svg__XMLID_68_" class="gaming-mouse_svg__st11" d="M483.1 372.5h17.8"/></g><g id="gaming-mouse_svg__XMLID_64_"><path id="gaming-mouse_svg__XMLID_65_" class="gaming-mouse_svg__st11" d="M483.1 366.5h17.8"/></g><g id="gaming-mouse_svg__XMLID_61_"><path id="gaming-mouse_svg__XMLID_62_" class="gaming-mouse_svg__st11" d="M483.1 360.5h17.8"/></g><g id="gaming-mouse_svg__XMLID_58_"><path id="gaming-mouse_svg__XMLID_59_" class="gaming-mouse_svg__st11" d="M483.1 354.5h17.8"/></g><g id="gaming-mouse_svg__XMLID_55_"><path id="gaming-mouse_svg__XMLID_56_" class="gaming-mouse_svg__st11" d="M483.1 348.5h17.8"/></g></g><g id="gaming-mouse_svg__XMLID_19_"><path id="gaming-mouse_svg__XMLID_30_" class="gaming-mouse_svg__st8" d="M495.2 402.3h-6.5c-3.7 0-7-3-7.4-6.7-1.3-14.8-1.3-29.7 0-44.5.4-3.7 3.7-6.7 7.4-6.7h6.5c3.7 0 7 3 7.4 6.7 1.3 14.8 1.3 29.7 0 44.5-.3 3.7-3.7 6.7-7.4 6.7z"/></g><path id="gaming-mouse_svg__XMLID_2_" class="gaming-mouse_svg__st8" d="M497 402.3h-10c-2.8 0-5-2.2-5-5v-48c0-2.8 2.2-5 5-5h10c2.8 0 5 2.2 5 5v48c0 2.8-2.3 5-5 5z"/><path id="gaming-mouse_svg__XMLID_25_" class="gaming-mouse_svg__st8" d="M499.9 468.6v-28.3c0-4.3-3.5-7.9-7.9-7.9s-7.9 3.5-7.9 7.9v28.3h15.8z"/><path id="gaming-mouse_svg__XMLID_21_" class="gaming-mouse_svg__st8" d="M499.9 476.6v28.3c0 4.3-3.5 7.9-7.9 7.9s-7.9-3.5-7.9-7.9v-28.3h15.8z"/></svg>